%FSTAX23Y23*%
%MOIN*%
%SFA1B1*%

%IPPOS*%
%ADD130C,0.051180*%
%ADD131C,0.051180*%
%ADD132C,0.098430*%
%ADD133C,0.009840*%
%ADD134C,0.011810*%
%ADD135C,0.019680*%
%LNpwr_board_final_pth_drill-1*%
%LPD*%
G54D130*
X02454Y00295D03*
X0265D03*
G54D131*
X00295Y0031D03*
Y00113D03*
Y01931D03*
Y01735D03*
Y01525D03*
Y01328D03*
Y00715D03*
Y00518D03*
Y0112D03*
Y00923D03*
G54D132*
X01822Y0194D03*
X01625D03*
X01335Y01945D03*
X01139D03*
X02435Y0194D03*
X02239D03*
G54D133*
X02083Y01382D03*
X02261Y01388D03*
X02256Y01301D03*
X02265Y01495D03*
X01429Y00635D03*
X0097Y0124D03*
X01389Y0063D03*
X01404Y004D03*
X01416Y00304D03*
G54D134*
X023Y01275D03*
Y0125D03*
X02325Y01275D03*
X0179Y0144D03*
X01785Y0152D03*
X02609Y01166D03*
X0261Y01105D03*
Y01135D03*
X0203Y01295D03*
X01569Y01428D03*
X01576Y01366D03*
X01005Y01385D03*
X01321Y01448D03*
X00465Y00845D03*
X0045Y00935D03*
X01Y0155D03*
X0061Y0147D03*
Y0156D03*
X01002Y01865D03*
X01957Y008D03*
X0173Y00395D03*
X01705Y0043D03*
X0171Y0061D03*
X01405Y01405D03*
X0193Y0086D03*
X01645Y00835D03*
X0184Y00635D03*
X00814Y0167D03*
X0197Y00525D03*
X01953Y00579D03*
X01505Y00279D03*
X0184Y00665D03*
X01645Y00865D03*
X02151Y00522D03*
G54D135*
X00805Y00845D03*
X0279Y0168D03*
Y01545D03*
Y01445D03*
Y01325D03*
Y01215D03*
Y01085D03*
Y0096D03*
Y0085D03*
Y0076D03*
Y00665D03*
X00115Y0132D03*
Y01205D03*
Y01085D03*
Y0074D03*
Y0062D03*
Y00525D03*
Y00445D03*
Y00345D03*
Y00235D03*
X0174Y0004D03*
X01845D03*
X0195D03*
X02055D03*
X0216D03*
X00805Y0089D03*
X00975Y01725D03*
X01535Y0069D03*
Y0073D03*
X01485Y0021D03*
X0145D03*
X01005Y0175D03*
X0095Y017D03*
X01645Y0017D03*
X01485D03*
X0145D03*
X0138Y0166D03*
Y01625D03*
X01405Y0149D03*
Y01535D03*
X015Y0069D03*
Y0073D03*
X00622Y01121D03*
M02*