%FSTAX23Y23*%
%MOIN*%
%SFA1B1*%

%IPPOS*%
%ADD10R,0.035430X0.039370*%
%ADD11R,0.041340X0.023620*%
%ADD15C,0.023620*%
%ADD16R,0.023620X0.024410*%
%ADD20R,0.047240X0.062990*%
%ADD27R,0.107090X0.048030*%
%ADD37R,0.037010X0.021260*%
%ADD41C,0.019680*%
%ADD42C,0.015750*%
%ADD43C,0.011810*%
%ADD44C,0.007870*%
%ADD45C,0.023620*%
%ADD51C,0.076770*%
%ADD52C,0.060000*%
%ADD53C,0.118110*%
%ADD54C,0.019680*%
%ADD55C,0.031500*%
%ADD56C,0.015750*%
%ADD57R,0.055000X0.090000*%
%ADD58R,0.224020X0.243310*%
%ADD59R,0.090000X0.055000*%
%ADD60R,0.243310X0.224020*%
%ADD61R,0.135830X0.057090*%
%ADD62R,0.045280X0.055120*%
%ADD63R,0.023620X0.047240*%
%ADD64R,0.208660X0.137400*%
%ADD65R,0.074800X0.011810*%
%ADD66R,0.011810X0.027560*%
%ADD67R,0.007870X0.027560*%
%ADD68R,0.079130X0.054330*%
%ADD69R,0.018700X0.019680*%
%ADD70R,0.021260X0.037010*%
%ADD71C,0.031500*%
%ADD72C,0.051180*%
%ADD73C,0.035430*%
%ADD74C,0.047240*%
%ADD75C,0.010000*%
%LNpwr_board_final_copper_signal_bot-1*%
%LPD*%
G36*
X02335Y0203D02*
Y01882D01*
X02392Y01825*
X0241*
Y01812*
X02405*
Y0169*
X02184*
Y01812*
X02179*
X02165Y01845*
X0215Y01878*
Y02035*
X0233*
X02335Y0203*
G37*
G36*
X01735Y01834D02*
X01757Y01814D01*
X01757*
Y01814*
Y01814*
Y01802*
X01757Y01802*
X01756*
Y0168*
X01513*
Y01802*
X01503*
X0149Y01815*
Y02035*
X01735*
Y01834*
G37*
G36*
X0197Y01619D02*
X01998D01*
Y0158*
X0197*
Y0157*
X0202*
Y01525*
X02017Y01521*
X02015*
X02006*
Y015*
Y01478*
X02015*
X02017*
X0202Y01474*
Y01415*
X01925Y0132*
X01867*
Y01325*
X0183*
Y01411*
X01867*
Y01423*
X0186Y0144*
X01854Y01455*
Y01465*
X01826*
Y01504*
X01854*
Y01514*
X0181Y01535*
Y0154*
Y01621*
X01833*
Y01616*
X01888*
X01943*
Y01621*
X0197*
Y01619*
G37*
G36*
X02834Y0D02*
X0D01*
Y02047*
X0123*
X01232Y02043*
X01232Y02042*
X0123Y02035*
Y01825*
X0113*
X01127Y01824*
X01124Y01824*
X01123Y01823*
X01122Y01823*
X0112Y01822*
X01117Y0182*
X01114Y01818*
X01112Y01817*
X01109Y01817*
X00988*
X0098Y01815*
X00973Y01811*
X0044Y01278*
X00436Y01271*
X00434Y01264*
Y01035*
X00435Y01031*
X00435Y01028*
X00436Y01028*
X00436Y01027*
X00438Y01024*
X00439Y01021*
X00455Y01004*
Y00965*
X00488*
X00499Y00951*
X005Y00951*
X005Y0095*
X00503Y00949*
X00505Y00947*
X00506Y00946*
X00507Y00946*
X0051Y00945*
X00513Y00944*
X00514Y00945*
X00515Y00944*
X00529*
X00534Y00939*
X00534Y008*
X00532Y00796*
X00225*
X00199Y00821*
Y00967*
X00297Y01065*
X00303*
X00316Y01069*
X00329Y01076*
X00339Y01086*
X00346Y01099*
X0035Y01112*
Y01127*
X00346Y0114*
X00339Y01153*
X00329Y01163*
X00316Y0117*
X00303Y01174*
X00288*
X00278Y01171*
X00189Y01259*
Y01805*
X00226Y01841*
X00993*
X00999Y0184*
X01006*
X01012Y01841*
X01018Y01845*
X01023Y01849*
X01026Y01855*
X01028Y01862*
Y01868*
X01026Y01875*
X01023Y01881*
X01018Y01886*
X01012Y01889*
X01006Y01891*
X00999*
X00993Y01889*
X00325*
X00323Y01894*
X00324Y01894*
X00332Y01903*
X00339Y01913*
X00342Y01925*
Y01937*
X00339Y01949*
X00332Y0196*
X00324Y01968*
X00313Y01974*
X00302Y01978*
X00289*
X00278Y01974*
X00267Y01968*
X00258Y0196*
X00252Y01949*
X00249Y01937*
Y01925*
X00252Y01913*
X00258Y01903*
X00267Y01894*
X00268Y01894*
X00266Y01889*
X00216*
X00207Y01887*
X00199Y01882*
X00148Y01832*
X00143Y01824*
X00141Y01815*
Y0125*
X00143Y0124*
X00148Y01232*
X00244Y01137*
X00241Y01127*
Y01122*
X00131Y01012*
X00125Y01003*
X00121Y00994*
X0012Y00984*
Y00805*
X00121Y00794*
X00125Y00785*
X00131Y00776*
X00164Y00743*
Y004*
X00166Y00393*
X00169Y00388*
X00174Y00385*
X0018Y00383*
X00383*
Y00225*
X00383Y00224*
X00383Y00224*
X00384Y00221*
X00385Y00218*
X00385Y00218*
X00385Y00218*
X004Y00186*
Y00023*
X00401Y00022*
X00474*
X00475Y00018*
X00476Y00017*
X00476Y00017*
X00476Y00017*
X00477Y00016*
X00478Y00014*
X00478Y00014*
X00479Y00012*
X0048Y00012*
X0048Y00012*
X00481Y00011*
X00482Y0001*
X00482Y0001*
X00482Y0001*
X00483Y0001*
X00485Y00009*
X00485Y00009*
X00485Y00009*
X00487Y00008*
X00488Y00008*
X00489Y00008*
X0049*
X00491Y00008*
X00491*
X00492Y00007*
X00798*
X00799Y00008*
X00801*
X00803Y00008*
X00804Y00008*
X01605*
X01605*
X0161*
X0161*
X0161Y00009*
X0161Y00008*
X01613Y00009*
X01616Y0001*
X01616Y0001*
X01616Y0001*
X01618Y00012*
X01621Y00013*
X01621*
X01621Y00013*
X01621Y00014*
X01631Y00025*
X0168*
Y00077*
X01692Y0009*
X01694Y00092*
X01695Y00095*
X01695Y00095*
X01695Y00095*
X01696Y00098*
X01696Y00101*
Y0013*
Y00235*
X01696Y00237*
X017Y00242*
X01855*
X01862Y00243*
X01867Y00247*
X02052Y00431*
X02294*
X02301Y00433*
X02307Y00437*
X02318Y00448*
X02322Y00454*
X02323Y00461*
Y00539*
X02322Y00546*
X02318Y00551*
X02005Y00865*
X02007Y00869*
X0214*
X02143Y0087*
X02146Y0087*
X02146Y00871*
X02147Y00871*
X0215Y00873*
X02153Y00874*
X02153Y00875*
X02154Y00875*
X02155Y00878*
X02157Y0088*
X02162Y0089*
X02186*
X02187Y0089*
X02225Y0089*
Y00973*
X02236*
Y01236*
X01953*
Y01219*
X01871*
Y01256*
X01608*
Y01223*
X01605Y01222*
X016Y01225*
Y01299*
X01602Y01303*
X01697*
Y01432*
X01685*
Y01447*
X01687Y01449*
X01726*
Y01445*
X0174*
X01743Y01442*
X01767Y01417*
X01774Y01412*
X01781Y01409*
X0179Y01408*
X0179Y01408*
X01794Y01405*
Y01315*
X01861*
X01861Y01314*
X01864Y01312*
X01867Y01311*
X01925*
X01928Y01312*
X0193Y01314*
X02025Y01409*
X02027Y01411*
X02028Y01415*
Y01474*
X02027Y01475*
Y01475*
X02027Y01476*
X02027Y01477*
X02026Y01478*
X02026Y01478*
X02024Y01482*
X02023Y01483*
X02023Y01483*
X02022Y01484*
X02021Y01484*
X02021Y01485*
X0202Y01485*
X02019Y01485*
X02018Y01486*
X02015Y01489*
Y0151*
X02018Y01513*
X02019Y01514*
X0202Y01514*
X02021Y01514*
X02021Y01515*
X02022Y01515*
X02022Y01515*
X02023Y01516*
X02026Y01516*
X02026Y01516*
X02028Y01515*
X02029Y01514*
X02031Y01512*
X02035Y01511*
X02042*
X02045Y01512*
X02048Y01514*
X0205Y01516*
X0205Y01517*
X02101*
Y01536*
X02102Y01537*
Y01551*
X02103Y01551*
X02105Y01553*
X02107Y01556*
X02108Y01559*
Y01575*
Y0171*
X02107Y01713*
X02105Y01715*
X02103Y01717*
X021Y01718*
X02068*
X0205Y01735*
X0205Y01735*
X02049Y01736*
X02045Y01739*
X02045Y01739*
X02044Y01739*
X02043Y0174*
X02043Y0174*
X02042Y0174*
X02041Y0174*
X02039*
Y01805*
X01984*
X01983Y01808*
X01981Y0181*
X01979Y01812*
X01976Y01813*
X01943*
X0194Y01812*
X01937Y0181*
X01935Y01808*
X01935Y01805*
X01835*
Y01744*
X01832Y0174*
X01831Y0174*
X0183Y01739*
X0183Y01739*
X01829Y01739*
X01828Y01738*
X01827Y01738*
X01827Y01738*
X01827Y01737*
X01824Y01734*
X01823Y01733*
X01822Y01731*
X01822Y01731*
X01822Y01731*
X01822Y0173*
X01821Y01728*
Y0169*
X01822Y01686*
X01824Y01684*
X01826Y01682*
X0183Y01681*
X01981*
X02026Y01636*
Y01631*
X02025Y01628*
X02022Y01627*
X01999*
X01998Y01627*
X01976*
X01973Y01629*
X0197Y0163*
X01943*
X0194Y01629*
X01937Y01627*
X01936Y01625*
X0184*
X01838Y01627*
X01836Y01629*
X01833Y0163*
X0181*
X01806Y01629*
X01804Y01627*
X01802Y01625*
X01801Y01621*
Y01552*
X01796Y01549*
X01793Y0155*
X01785Y01551*
X01781Y01551*
X01776Y01555*
Y01678*
X01776Y0168*
Y01799*
X01777Y01802*
Y01802*
Y01814*
X01777Y01815*
X01777Y01815*
X01777Y01815*
X01777Y01815*
X01776Y01818*
X01776Y01821*
X01775Y01822*
X01775Y01822*
X01775Y01822*
X01775Y01822*
X01775Y01823*
X01775Y01823*
X01773Y01825*
X01771Y01828*
X01771Y01828*
X01771Y01829*
X01771Y01829*
X01771Y01829*
X0177Y01829*
X0177Y01829*
X01755Y01843*
Y01915*
X0176Y01916*
X01763Y01908*
X0177Y01897*
X0178Y01888*
X01791Y0188*
X01803Y01875*
X01816Y01873*
X01829*
X01842Y01875*
X01854Y0188*
X01865Y01888*
X01874Y01897*
X01882Y01908*
X01887Y0192*
X01889Y01933*
Y01946*
X01887Y01959*
X01882Y01971*
X01874Y01982*
X01865Y01991*
X01854Y01999*
X01842Y02004*
X01829Y02006*
X01816*
X01803Y02004*
X01791Y01999*
X0178Y01991*
X0177Y01982*
X01763Y01971*
X0176Y01963*
X01755Y01964*
Y02035*
X01753Y02042*
X01753Y02043*
X01755Y02047*
X02129*
X02131Y02043*
X02131Y02042*
X02129Y02035*
Y01878*
X02129Y01878*
X02129Y01877*
X0213Y01874*
X02131Y0187*
X02131Y0187*
X02131Y0187*
X02146Y01836*
Y01836*
X0215Y01829*
Y01812*
X02153*
Y01558*
X02436*
Y01821*
X0243*
Y01825*
X02428Y01832*
X02424Y01839*
X02417Y01843*
X0241Y01845*
X024*
X02355Y0189*
Y0203*
X02353Y02037*
X0235Y02042*
X02352Y02047*
X02834*
Y0*
G37*
G36*
X01976Y01805D02*
Y01791D01*
X02008*
Y0177*
X0203*
Y01732*
X02041*
X02045Y01729*
X02065Y0171*
X021*
Y01575*
Y01559*
X02093*
Y01537*
X02052*
Y01559*
X02042*
Y0152*
X02035*
Y0157*
X02043*
Y016*
Y01629*
X02035*
Y0164*
X01985Y0169*
X0183*
Y01728*
X01833Y01732*
X01943*
Y01744*
X01888*
Y01795*
X01943*
Y01805*
X01976*
G37*
G36*
X01005Y0153D02*
X01008Y01532D01*
X01013Y01529*
X01012Y01447*
X01012Y01447*
X01012Y01446*
X01012Y01443*
X01013Y0144*
X01013Y01439*
X01013Y01439*
X01015Y01436*
X01017Y01433*
X01018Y01433*
X01018Y01432*
X01023Y01428*
X01023Y01428*
Y01403*
X01018Y01401*
X01017Y01403*
X01009Y01406*
X01*
X00999Y01406*
X00995Y01407*
X00852*
X0085Y01411*
X00978Y01539*
X00983Y01538*
X00988Y01533*
X00995Y0153*
Y0155*
X01005*
Y0153*
G37*
G36*
X01435Y01575D02*
X01455D01*
Y01459*
X01336*
X01332Y01463*
X01325Y01466*
X01318*
X01311Y01463*
X01307Y01458*
X01188Y01442*
X01177*
Y01404*
X01043*
Y01442*
X01037*
X01032Y01447*
X01035Y0161*
X0102*
X00988Y01577*
X00981Y01573*
X00976Y01568*
X00972Y01561*
X00575Y01165*
Y01122*
X00615Y0108*
X00905*
X0097Y0088*
X0159*
X0184*
X019Y00825*
Y00741*
Y00556*
X0184Y00485*
X01725*
X01721Y00485*
X01664Y005*
X0166*
Y005*
Y00506*
X0161*
Y00557*
X0166*
Y00562*
X01725Y00565*
X01726Y00566*
X01734Y00567*
X0178Y00631*
Y00764*
X0172Y0082*
X0126*
Y00821*
X01173*
Y0082*
X00883*
X0084Y00965*
X00515*
X00455Y01035*
Y01264*
X00988Y01797*
X0111*
X01118Y01798*
X01124Y018*
X01128Y01803*
X0113Y01805*
X0125*
Y02035*
X01435*
Y01575*
G37*
G36*
X01763Y01543D02*
X01762Y01542D01*
X01744Y01524*
X01726*
Y0152*
X01673*
X01663Y01519*
X01655Y01515*
X01647Y0151*
X01624Y01487*
X01619Y01479*
X01615Y01471*
X01614Y01461*
Y01432*
X01602*
Y0136*
X01602Y0136*
X01597Y01359*
X01597Y01359*
X01596Y01361*
X01595Y01362*
X01594Y01363*
Y0137*
X01591Y01376*
X0159Y01377*
Y01419*
X01589Y01424*
X01586Y01428*
Y01432*
X01584Y01438*
X01579Y01443*
X01572Y01446*
X01565*
X01559Y01443*
X01554Y01438*
X01551Y01432*
Y01425*
X01554Y01418*
X01559Y01413*
X01562Y01412*
Y01405*
X01465*
X01457Y01403*
X0145Y01399*
X01446Y01392*
X01444Y01385*
Y01165*
X01198*
Y01208*
X01212*
Y01202*
X01275*
Y01212*
X01275*
Y01245*
Y01279*
X01275*
Y01289*
X01212*
Y01271*
X01124*
X01116Y0127*
X01108Y01267*
X01102Y01262*
X01088Y01248*
X01083Y01242*
X0108Y01234*
X01079Y01226*
Y01224*
X01023*
Y01195*
X01005*
X01005Y01194*
Y01132*
X00989Y01107*
X00988Y01105*
X00987Y01104*
X00986Y01102*
X00986Y011*
X00986Y01098*
X00985Y01096*
Y01002*
X00986Y01*
X00986Y00998*
X00986Y00996*
X00987Y00994*
X00988Y00993*
X00988Y00991*
X0099Y00989*
X00991Y00987*
X00993Y00986*
X00994Y00985*
X01005Y00977*
Y009*
X00985*
X00924Y01086*
X00923Y01086*
X00923Y01087*
X00921Y0109*
X0092Y01093*
X00919Y01093*
X00919Y01094*
X00916Y01095*
X00914Y01097*
X00913Y01098*
X00912Y01098*
X00909Y01099*
X00906Y011*
X00905Y01099*
X00905Y011*
X00646*
X00645Y01102*
X00644Y01105*
X00647Y0111*
X00649Y01117*
Y01125*
X00647Y01132*
X00644Y01138*
Y01163*
X00739Y01258*
X00744Y01256*
Y01108*
X00937*
Y01321*
X00809*
X00807Y01325*
X00844Y01362*
X00995*
X00999Y01363*
X01Y01363*
X01009*
X01017Y01366*
X01018Y01368*
X01023Y01366*
Y01355*
X01081*
Y01351*
X01082Y01343*
X01085Y01336*
X01089Y0133*
X01101Y01318*
X01107Y01314*
X01114Y01311*
X01122Y0131*
X01159*
X01161Y01309*
X01169Y01308*
X01212*
Y013*
X01275*
Y01337*
X01275Y0134*
Y01344*
X01275Y01346*
Y01387*
X01212*
Y01371*
X01198*
Y01423*
X01245Y0143*
X01294*
Y01383*
X0129*
Y01304*
X01345*
Y01347*
X01345Y01347*
Y01382*
X01349*
Y01387*
X01353*
Y0141*
X01358*
Y01415*
X01379*
Y01429*
X01401*
X01401Y01424*
X01397Y01423*
X0139Y01419*
X01386Y01412*
X01384Y01405*
Y01243*
X01371Y0123*
X0134*
X01338Y01232*
Y01245*
X01337Y01247*
Y01277*
X01302*
Y01279*
X01285*
Y01245*
Y01212*
X01302*
X01304Y01209*
X01317Y01195*
X01324Y01191*
X01332Y01189*
X0138*
X01381Y0119*
X01383*
X01385Y01191*
X01387Y01191*
X01389Y01192*
X01391Y01193*
X01392Y01194*
X01394Y01195*
X01419Y0122*
X01423Y01227*
X01425Y01235*
Y01405*
X01423Y01412*
X01419Y01419*
X01412Y01423*
X01408Y01424*
X01408Y01429*
X01457*
Y01439*
X01463Y0144*
X0147Y01445*
X01474Y01451*
X01475Y01459*
Y0153*
X01476Y01531*
X01489*
Y01546*
X01493Y01548*
X01761*
X01763Y01543*
G37*
G36*
X01562Y01377D02*
X01561Y01376D01*
X01558Y0137*
Y01363*
X01561Y01356*
X01566Y01351*
X01573Y01348*
X0158*
X0158Y01348*
Y01215*
X0156*
Y01155*
X01576Y01171*
X01598Y01193*
X01613Y01201*
X01617Y01198*
Y01193*
X0174*
X01862*
Y01194*
X01867Y01199*
X01963*
X01963Y01194*
Y01191*
X02095*
Y01105*
X02181*
Y00982*
X02181*
X02185Y00977*
X0214Y0089*
X0116*
X01005Y01002*
Y01096*
X01032Y01136*
X01037Y01137*
X01043*
Y01175*
X01177*
Y01137*
X01188*
X0119Y01138*
X01195Y01144*
Y01145*
X01465*
Y01385*
X01562*
Y01377*
G37*
G36*
X01555Y00659D02*
X01475D01*
Y00671*
X01454*
Y00688*
X01475*
Y007*
Y00702*
X01475Y00705*
Y00716*
X01456*
Y00733*
X01475*
Y00744*
X0149Y00759*
X01494Y0076*
X01555*
Y00659*
G37*
G36*
X01396Y00755D02*
X01402D01*
X01403Y00754*
Y00742*
X01398*
Y00707*
X01403*
Y007*
X01398*
Y00672*
X01397Y00671*
Y00655*
X01397Y00653*
Y00651*
X01394Y00649*
Y0063*
X01384*
Y00649*
X01382Y00651*
Y00688*
X01382Y00692*
Y00692*
Y00704*
X01381Y00708*
X01379Y00712*
X01369Y00722*
X01365Y00724*
X01362Y00725*
X01362Y0073*
X01362*
Y00757*
X01387*
X01388Y00758*
X01396Y00755*
G37*
G36*
X0083Y00927D02*
Y00275D01*
X01175*
X01263Y0013*
X01272*
Y00129*
X01399*
Y0013*
X01399*
X0143Y0018*
Y00235*
X0168*
Y00101*
X0161Y00025*
X01605*
X008*
Y00024*
X00798Y00023*
X00571*
X004Y00403*
Y004*
X00182*
X00181Y004*
X0018Y00401*
Y00743*
Y0078*
X00225*
X00532*
X00534Y00778*
X00553Y00754*
X00716*
X00733Y00778*
Y00929*
X00826Y0093*
X0083Y00927*
G37*
G36*
X01145Y00645D02*
Y0064D01*
X01167*
Y00616*
X01145*
Y00606*
X01151Y00582*
X01148Y00578*
X0107*
Y00519*
X01165*
Y00535*
X01273*
Y0051*
X01268Y0051*
X0123*
X0122Y005*
Y0045*
X01165*
Y0048*
X0105*
X00936*
Y0045*
X00915*
Y00616*
X00918Y0062*
X01109Y00619*
Y00641*
X01113Y00645*
X01145Y00645*
G37*
G36*
X01242Y00647D02*
X0126D01*
X01272Y00634*
X01273Y00634*
Y00605*
X01229*
X01225Y00606*
Y00616*
X01203*
Y0064*
X01225*
Y00647*
X01242*
Y00647*
G37*
G36*
X01438Y00484D02*
X0132D01*
Y00498*
X01438*
Y00484*
G37*
G36*
X00864Y00814D02*
X00864Y00813D01*
X00864Y00812*
X00866Y00809*
X00867Y00807*
X00868Y00806*
X00869Y00805*
X00871Y00804*
X00873Y00802*
X00874Y00802*
X00875Y00801*
X00878Y008*
X00881Y008*
X00882Y008*
X00883Y00799*
X01173*
X01178Y008*
X01183Y00798*
Y00775*
X01217*
X0125*
Y00798*
X01255Y008*
X0126Y00799*
X01299*
Y00735*
X01283*
Y00737*
X01266*
Y00715*
X01261*
Y0071*
X0124*
Y00697*
X01239Y00697*
X01053*
Y00739*
X0099*
Y0066*
X01053*
Y00672*
X0124*
Y0067*
X01259*
Y0066*
X0124*
Y00655*
X01225*
X01222Y00655*
X01219Y00653*
X01217Y0065*
X01217Y00648*
X01152*
X01151Y00649*
X0115Y0065*
X0115Y0065*
X0115Y0065*
X01149Y00651*
X01148Y00652*
X01148Y00652*
X01148Y00652*
X01146Y00652*
X01145Y00653*
X01113Y00653*
X01113*
X01113*
X01111Y00652*
X0111Y00652*
Y00652*
X0111*
X01108Y00651*
X01107Y0065*
Y0065*
X01107*
X01104Y00647*
X01104Y00647*
X01103Y00645*
X01102Y00644*
Y00644*
Y00644*
X01102Y00643*
X01101Y00641*
X01101Y00641*
X01101Y00641*
Y0063*
X01098Y00627*
X00918Y00628*
X00918*
X00918Y00628*
X00917Y00628*
X00915Y00627*
X00915*
X00915Y00627*
X00914Y00626*
X00912Y00625*
X00912Y00625*
X00912Y00625*
X00909Y00622*
X00909Y00622*
X00909Y00622*
X00908Y00621*
X00907Y00619*
Y00619*
X00907Y00619*
X00907Y00618*
X00906Y00616*
Y00616*
Y00616*
Y0045*
X00907Y00446*
X00909Y00444*
X00911Y00442*
X00915Y00441*
X00936*
X00938Y0044*
Y00423*
X01163*
Y0044*
X01165Y00441*
X0122*
X01223Y00442*
X01226Y00444*
X01228Y00446*
X01228Y0045*
Y00496*
X01234Y00501*
X01268*
X01269Y00502*
X01269Y00502*
X01269Y00502*
X01274Y00497*
X01275Y0046*
X01289*
Y00426*
X01285*
Y00373*
X01286*
Y00346*
X01287Y00339*
X01291Y00333*
X01303Y00322*
X01309Y00318*
X01315Y00316*
X01685*
X01692Y00318*
X01698Y00322*
X01743Y00367*
X01747Y00373*
X01748Y0038*
Y00395*
X01748Y00396*
Y00398*
X01747Y004*
X01747Y00401*
X01746Y00403*
X01745Y00405*
X01744Y00406*
X01743Y00407*
X01742Y00408*
X0174Y0041*
X01739Y0041*
X01737Y00411*
X01736Y00412*
X01734Y00412*
X01732*
X0173Y00413*
X01729Y00412*
X01727*
X01725Y00412*
X01723Y00411*
X01722Y0041*
X0172Y0041*
X01719Y00408*
X01718Y00407*
X01717Y00406*
X01715Y00405*
X01715Y00403*
X01714Y00401*
X01713Y004*
X01713Y00398*
Y00396*
X01712Y00395*
Y00387*
X01678Y00353*
X01323*
X01322Y00354*
Y00373*
X01322*
Y00426*
X01317*
Y00435*
Y0046*
X01465*
Y0049*
Y00508*
X01467Y00512*
X01544*
Y00513*
X01551*
Y00485*
X01647*
X01652Y00481*
X0166Y00479*
X01661*
X01717Y00466*
X01721Y00465*
X01723Y00465*
X01725Y00464*
X0184*
X01841Y00465*
X01842Y00465*
X01845Y00465*
X01848Y00466*
X01849Y00466*
X01849Y00467*
X01851Y00468*
X01856Y00466*
X01856Y00466*
X01923*
Y00539*
X01928Y00544*
Y00546*
X01929Y00547*
Y00572*
X01934Y00573*
X01936Y00568*
X01942Y00563*
X01948Y0056*
Y00579*
Y00599*
X01945Y00597*
X0194Y00601*
Y00782*
X01945Y00784*
X01946Y00783*
X01952Y0078*
Y008*
Y00819*
X01946Y00817*
X01945Y00816*
X0194Y00818*
Y00841*
X01977*
X02287Y00531*
Y00469*
X02286Y00468*
X02045*
X02038Y00466*
X02032Y00462*
X01847Y00278*
X01524*
X01523Y00279*
Y00279*
X01523Y00281*
Y00282*
X01522Y00284*
X01522Y00286*
X01521Y00287*
X0152Y00289*
X01519Y0029*
X01518Y00292*
X01517Y00293*
X01515Y00294*
X01514Y00295*
X01512Y00296*
X01511Y00296*
X01509Y00297*
X01507*
X01505Y00297*
X01504Y00297*
X01502*
X015Y00296*
X01498Y00296*
X01497Y00295*
X01495Y00294*
X01494Y00293*
X01493Y00292*
X01492Y0029*
X0149Y00289*
X0149Y00287*
X01489Y00286*
X01488Y00284*
X01488Y00282*
Y00281*
X01487Y00279*
Y00271*
X01489Y00264*
X01493Y00258*
X01496Y00255*
X01494Y00251*
X0143*
X01423Y00249*
X01418Y00246*
X01415Y00241*
X01413Y00235*
Y00184*
X0139Y00145*
X01275*
X01272Y00146*
X01188Y00283*
X01187Y00284*
X01187Y00285*
X01186Y00285*
X01186Y00286*
X01185Y00287*
X01184Y00287*
X01183Y00288*
X01182Y00289*
X01181Y00289*
X01181Y00289*
X01179Y0029*
X01178Y0029*
X01177Y0029*
X01176Y0029*
X01175Y0029*
X01175Y00291*
X00846*
Y00858*
X00851Y00859*
X00864Y00814*
G37*
%LNpwr_board_final_copper_signal_bot-2*%
%LPC*%
G36*
X01943Y01563D02*
X01888D01*
X01833*
Y01552*
X01943*
Y01563*
G37*
G36*
X01967Y01521D02*
X01956D01*
Y01478*
X01967*
Y015*
Y01521*
G37*
G36*
X02442Y02006D02*
X02429D01*
X02416Y02004*
X02404Y01999*
X02393Y01991*
X02383Y01982*
X02376Y01971*
X02371Y01959*
X02368Y01946*
Y01933*
X02371Y0192*
X02376Y01908*
X02383Y01897*
X02393Y01888*
X02404Y0188*
X02416Y01875*
X02429Y01873*
X02442*
X02455Y01875*
X02467Y0188*
X02478Y01888*
X02487Y01897*
X02495Y01908*
X025Y0192*
X02502Y01933*
Y01946*
X025Y01959*
X02495Y01971*
X02487Y01982*
X02478Y01991*
X02467Y01999*
X02455Y02004*
X02442Y02006*
G37*
G36*
X02793Y01812D02*
X02782D01*
Y01775*
Y01737*
X02793*
Y01812*
G37*
G36*
X02739D02*
X02728D01*
Y01737*
X02739*
Y01775*
Y01812*
G37*
G36*
X02133Y01807D02*
X02123D01*
Y0177*
Y01732*
X02133*
Y01807*
G37*
G36*
X02078D02*
X02068D01*
Y01732*
X02078*
Y0177*
Y01807*
G37*
G36*
X00652Y01798D02*
X00638D01*
X00625Y01794*
X00612Y01787*
X00602Y01777*
X00595Y01765*
X00592Y01752*
Y01738*
X00595Y01724*
X00602Y01712*
X00612Y01702*
X00625Y01695*
X00638Y01691*
X00652*
X00666Y01695*
X00678Y01702*
X00688Y01712*
X00695Y01724*
X00698Y01738*
Y01752*
X00695Y01765*
X00688Y01777*
X00678Y01787*
X00666Y01794*
X00652Y01798*
G37*
G36*
X00302Y01781D02*
X00289D01*
X00278Y01778*
X00267Y01772*
X00258Y01763*
X00252Y01752*
X00249Y01741*
Y01728*
X00252Y01717*
X00258Y01706*
X00267Y01697*
X00278Y01691*
X00289Y01688*
X00302*
X00313Y01691*
X00324Y01697*
X00332Y01706*
X00339Y01717*
X00342Y01728*
Y01741*
X00339Y01752*
X00332Y01763*
X00324Y01772*
X00313Y01778*
X00302Y01781*
G37*
G36*
X02701Y01835D02*
X0248D01*
Y0174*
Y0171*
X02541*
X02548Y01704*
X02549Y01703*
X0255Y01702*
X0255Y01702*
X02551Y01702*
X02552Y01702*
X02553Y01701*
X02606*
X02684Y01624*
X02684Y01623*
X0269Y01618*
Y01548*
X02687Y01539*
X02669Y0152*
X02663Y01515*
X0259*
X02588Y01519*
Y01554*
X02602*
X02606Y01554*
X02608Y01556*
X02608Y01556*
X0261Y01559*
X0261Y01559*
X0263*
X02632Y01562*
X02684*
Y01588*
X02684Y0159*
X02684Y01591*
Y01617*
X02667*
X02666Y01618*
X02661Y01622*
X02655Y01624*
X02648Y01625*
X02601*
Y01635*
X02497*
X02497Y01635*
X02496Y01636*
X02495Y01636*
X02495Y01636*
X02494Y01636*
X02493Y01636*
X02492Y01636*
X02492Y01636*
X02491Y01636*
X0249Y01636*
X02489Y01636*
X02489Y01635*
X02478Y01629*
X02473*
X02473Y01629*
X0247Y01626*
X0247*
Y01625*
X02466Y01623*
X02465Y01622*
X02464Y01621*
X02464Y01621*
X02463Y01621*
X02463Y0162*
X02462Y01619*
X02462Y01618*
X02462Y01618*
X02462Y01617*
X02461Y01616*
Y01533*
X0237*
Y01534*
X02309*
X02305Y01535*
X0225*
X02242Y01533*
X02235Y01529*
X02231Y01522*
X02229Y01515*
Y01465*
X02231Y01457*
X02235Y0145*
X02242Y01446*
X0225Y01444*
X02251*
X02259Y01436*
Y01411*
X0226Y01411*
X02257Y01408*
X0225Y01405*
X02244Y01399*
X02242Y01393*
X02261*
Y01383*
X02242*
X02244Y01377*
X0225Y01371*
X02257Y01368*
X0226Y01365*
X02259Y01364*
Y01319*
X02252*
X02246Y01316*
X02244Y01314*
X02228*
X02223Y01313*
X02219Y0131*
X02217Y01309*
X02041*
X0204Y0131*
X02033Y01312*
X02026*
X02019Y0131*
X02014Y01305*
X02012Y01298*
Y01291*
X02014Y01284*
X02019Y01279*
X02026Y01277*
X02033*
X0204Y01279*
X02041Y0128*
X02223*
X02228Y01282*
X02232Y01285*
X02234Y01286*
X02246*
X02246Y01286*
X02252Y01283*
X02259*
Y01235*
X02261Y01227*
X02265Y0122*
X02272Y01216*
X02279Y01214*
X0228Y01206*
X02283Y012*
Y01196*
X02283Y01193*
Y01147*
X0236*
Y01114*
X02355Y01111*
X02354Y01111*
X02354Y0111*
X02354Y0111*
X02353Y0111*
X02349Y01105*
X023*
Y01052*
X02295Y0105*
X02295*
Y00979*
X02348*
X02348Y00979*
X02355*
X0236Y00977*
Y00975*
X02413*
X02458Y00967*
X02459Y00967*
X0246Y00966*
X02574*
Y00473*
X0254Y00439*
X02536Y00432*
X02534Y00425*
Y0016*
X02536Y00152*
X0254Y00145*
X02547Y00141*
X02555Y00139*
X0278*
X02787Y00141*
X02794Y00145*
X02799Y0015*
X02803Y00157*
X02805Y00165*
X02803Y00172*
X028Y00177*
Y0054*
X02798Y00547*
X02794Y00554*
X02745Y00603*
Y01235*
X02744Y01238*
X02743Y01241*
X02743Y01242*
X02743Y01242*
X02741Y01245*
X02739Y01248*
X02739Y01248*
X02739Y01249*
X02736Y01251*
X02733Y01253*
X02733Y01253*
X02732Y01253*
X02729Y01254*
X02725Y01255*
X02599Y01259*
X02599Y01259*
X02598Y01259*
X02595Y01259*
X02593Y01258*
X02588Y01261*
X02588Y01262*
Y014*
X02587Y014*
X02587Y01401*
X02587Y01402*
X02587Y01403*
X02586Y01403*
X02586Y01404*
X0258Y01413*
Y01446*
X02581Y01447*
X02585Y01448*
X02586Y01447*
X0259Y01446*
X0272*
X02723Y01447*
X02725Y01449*
X02765Y01489*
X02767Y01491*
X02768Y01495*
Y0154*
X02767Y01543*
X02765Y01545*
X02763Y01547*
X02763Y01548*
X02764Y01553*
X02765Y01554*
X02767Y01556*
X02768Y0156*
X02767Y01563*
X02765Y01565*
X02765Y01565*
X02762Y01567*
X0276Y01568*
Y01626*
X02765Y01632*
X02767Y01635*
X02768Y01638*
Y01665*
X02767Y01665*
X02767Y01666*
X02767Y01667*
X02767Y01668*
X02766Y01668*
X02766Y01669*
X0276Y01679*
Y0168*
X02759*
X02756Y01684*
X02756Y01685*
X02755Y01685*
X02709Y01731*
Y01812*
X02709Y01814*
X02709Y01815*
X02709Y01815*
X02709Y01815*
X02708Y01816*
X02707Y01818*
X02707Y01818*
Y01818*
X02706Y01819*
X02704Y01819*
X02704*
X02704Y01819*
X02703Y0182*
X02701Y0182*
X02701*
Y01835*
G37*
G36*
X00302Y01575D02*
X00289D01*
X00276Y01571*
X00265Y01565*
X00255Y01555*
X00249Y01544*
X00245Y01531*
Y01518*
X00249Y01505*
X00255Y01494*
X00265Y01484*
X00276Y01478*
X00289Y01474*
X00302*
X00315Y01478*
X00326Y01484*
X00336Y01494*
X00342Y01505*
X00346Y01518*
Y01531*
X00342Y01544*
X00336Y01555*
X00326Y01565*
X00315Y01571*
X00302Y01575*
G37*
G36*
X02101Y01482D02*
X02044D01*
Y01442*
X02101*
Y01482*
G37*
G36*
X02088Y01401D02*
Y01387D01*
X02102*
X021Y01393*
X02094Y01399*
X02088Y01401*
G37*
G36*
X02078D02*
X02071Y01399D01*
X02066Y01393*
X02063Y01387*
X02078*
Y01401*
G37*
G36*
X02651Y01422D02*
X02594D01*
Y01382*
X02651*
Y01422*
G37*
G36*
X02102Y01377D02*
X02088D01*
Y01362*
X02094Y01365*
X021Y01371*
X02102Y01377*
G37*
G36*
X02078D02*
X02063D01*
X02066Y01371*
X02071Y01365*
X02078Y01362*
Y01377*
G37*
G36*
X00325Y01366D02*
Y01328D01*
Y01289*
X00325Y01289*
X00334Y01298*
X0034Y01309*
X00344Y01321*
Y01334*
X0034Y01346*
X00334Y01357*
X00325Y01366*
X00325Y01366*
G37*
G36*
X00266D02*
X00266Y01366D01*
X00257Y01357*
X0025Y01346*
X00247Y01334*
Y01321*
X0025Y01309*
X00257Y01298*
X00266Y01289*
X00266Y01289*
Y01328*
Y01366*
G37*
G36*
X00302Y00969D02*
X00289D01*
X00278Y00966*
X00267Y0096*
X00258Y00951*
X00252Y00941*
X00249Y00929*
Y00917*
X00252Y00905*
X00258Y00894*
X00267Y00886*
X00278Y0088*
X00289Y00876*
X00302*
X00313Y00879*
X00361Y00832*
X00367Y00828*
X00374Y00826*
X00465*
X00466Y00827*
X00468*
X0047Y00827*
X00471Y00828*
X00473Y00829*
X00475Y00829*
X00476Y00831*
X00477Y00832*
X00478Y00833*
X0048Y00834*
X0048Y00836*
X00481Y00838*
X00482Y00839*
X00482Y00841*
Y00843*
X00483Y00845*
X00482Y00846*
Y00848*
X00482Y0085*
X00481Y00851*
X0048Y00853*
X0048Y00855*
X00478Y00856*
X00477Y00857*
X00476Y00858*
X00475Y0086*
X00473Y0086*
X00471Y00861*
X0047Y00862*
X00468Y00862*
X00466*
X00465Y00863*
X00381*
X00339Y00905*
X00342Y00917*
Y00929*
X00339Y00941*
X00332Y00951*
X00324Y0096*
X00313Y00966*
X00302Y00969*
G37*
G36*
X0246Y00343D02*
X02447D01*
X02435Y0034*
X02424Y00333*
X02415Y00324*
X02415Y00324*
X02454*
X02492*
X02492Y00324*
X02483Y00333*
X02472Y0034*
X0246Y00343*
G37*
G36*
X00303Y00364D02*
X00288D01*
X00275Y0036*
X00262Y00353*
X00252Y00343*
X00245Y0033*
X00241Y00317*
Y00302*
X00245Y00289*
X00252Y00276*
X00262Y00266*
X00275Y00259*
X00288Y00255*
X00303*
X00316Y00259*
X00329Y00266*
X00339Y00276*
X00346Y00289*
X0035Y00302*
Y00317*
X00346Y0033*
X00339Y00343*
X00329Y00353*
X00316Y0036*
X00303Y00364*
G37*
G36*
X02492Y00265D02*
X02454D01*
X02415*
X02415Y00265*
X02424Y00256*
X02435Y00249*
X02447Y00246*
X0246*
X02472Y00249*
X02483Y00256*
X02492Y00265*
X02492Y00265*
G37*
G36*
X00325Y00151D02*
Y00113D01*
Y00074*
X00325Y00074*
X00334Y00083*
X0034Y00094*
X00344Y00106*
Y00119*
X0034Y00131*
X00334Y00142*
X00325Y00151*
X00325Y00151*
G37*
G36*
X00266D02*
X00266Y00151D01*
X00257Y00142*
X0025Y00131*
X00247Y00119*
Y00106*
X0025Y00094*
X00257Y00083*
X00266Y00074*
X00266Y00074*
Y00113*
Y00151*
G37*
G36*
X01987Y01748D02*
X01976D01*
Y01732*
X01987*
Y01748*
G37*
G36*
X02089Y01629D02*
X02079D01*
Y016*
Y0157*
X02089*
Y01629*
G37*
G36*
X01379Y01405D02*
X01363D01*
Y01387*
X01379*
Y01405*
G37*
G36*
X00975Y01257D02*
Y01245D01*
X00987*
X00985Y0125*
X0098Y01255*
X00975Y01257*
G37*
G36*
X00965D02*
X00959Y01255D01*
X00954Y0125*
X00952Y01245*
X00965*
Y01257*
G37*
G36*
X00987Y01235D02*
X00975D01*
Y01222*
X0098Y01224*
X00985Y01229*
X00987Y01235*
G37*
G36*
X00965D02*
X00952D01*
X00954Y01229*
X00959Y01224*
X00965Y01222*
Y01235*
G37*
G36*
X01862Y01036D02*
X01818D01*
Y00983*
X01862*
Y01036*
G37*
G36*
X01661D02*
X01617D01*
Y00983*
X01661*
Y01036*
G37*
G36*
X02008Y01018D02*
X01963D01*
Y00982*
X02008*
Y01018*
G37*
G36*
X00325Y00753D02*
Y00715D01*
Y00676*
X00325Y00676*
X00334Y00685*
X0034Y00696*
X00344Y00708*
Y00721*
X0034Y00733*
X00334Y00744*
X00325Y00753*
X00325Y00753*
G37*
G36*
X00266D02*
X00266Y00753D01*
X00257Y00744*
X0025Y00733*
X00247Y00721*
Y00708*
X0025Y00696*
X00257Y00685*
X00266Y00676*
X00266Y00676*
Y00715*
Y00753*
G37*
G36*
X00325Y00556D02*
Y00518D01*
Y00479*
X00325Y00479*
X00334Y00488*
X0034Y00499*
X00344Y00511*
Y00524*
X0034Y00536*
X00334Y00547*
X00325Y00556*
X00325Y00556*
G37*
G36*
X00266D02*
X00266Y00556D01*
X00257Y00547*
X0025Y00536*
X00247Y00524*
Y00511*
X0025Y00499*
X00257Y00488*
X00266Y00479*
X00266Y00479*
Y00518*
Y00556*
G37*
G36*
X01165Y00224D02*
X0109D01*
Y00185*
X01165*
Y00224*
G37*
G36*
X01011D02*
X00936D01*
Y00185*
X01011*
Y00224*
G37*
G36*
X01399Y00082D02*
X01272D01*
Y00071*
X01399*
Y00082*
G37*
G36*
X01165Y00106D02*
X0109D01*
Y00066*
X01165*
Y00106*
G37*
G36*
X01011D02*
X00936D01*
Y00066*
X01011*
Y00106*
G37*
G36*
X01031Y00578D02*
X00936D01*
Y00519*
X01031*
Y00578*
G37*
G36*
X01962Y00819D02*
Y00805D01*
X01976*
X01974Y00811*
X01968Y00817*
X01962Y00819*
G37*
G36*
X01976Y00795D02*
X01962D01*
Y0078*
X01968Y00783*
X01974Y00788*
X01976Y00795*
G37*
G36*
X01212Y00765D02*
X01183D01*
Y00728*
X01212*
Y00765*
G37*
G36*
X0125D02*
X01222D01*
Y00728*
X0124*
Y0072*
X01256*
Y00737*
X0125*
Y00765*
G37*
G36*
X00941Y00741D02*
X00912D01*
Y00705*
X00941*
Y00741*
G37*
G36*
X00902D02*
X00874D01*
Y00705*
X00902*
Y00741*
G37*
G36*
X00941Y00695D02*
X00912D01*
Y00658*
X00941*
Y00695*
G37*
G36*
X00902D02*
X00874D01*
Y00658*
X00902*
Y00695*
G37*
G36*
X01958Y00599D02*
Y00584D01*
X01973*
X0197Y00591*
X01964Y00596*
X01958Y00599*
G37*
G36*
X01973Y00574D02*
X01958D01*
Y0056*
X01964Y00563*
X0197Y00568*
X01973Y00574*
G37*
G36*
X0197Y00543D02*
X01969Y00542D01*
X01967*
X01965Y00542*
X01963Y00541*
X01962Y0054*
X0196Y0054*
X01959Y00538*
X01958Y00537*
X01957Y00536*
X01955Y00535*
X01955Y00533*
X01954Y00531*
X01953Y0053*
X01953Y00528*
Y00526*
X01952Y00525*
X01953Y00523*
Y00521*
X01953Y00519*
X01954Y00518*
X01955Y00516*
X01955Y00514*
X01957Y00513*
X01958Y00512*
X0196Y0051*
X01966Y00506*
X01973Y00504*
X02151*
X02153Y00505*
X02155*
X02156Y00505*
X02158Y00506*
X0216Y00507*
X02161Y00507*
X02163Y00509*
X02164Y0051*
X02165Y00511*
X02166Y00512*
X02167Y00514*
X02168Y00515*
X02168Y00517*
X02169Y00519*
Y00521*
X02169Y00522*
X02169Y00524*
Y00526*
X02168Y00528*
X02168Y00529*
X02167Y00531*
X02166Y00532*
X02165Y00534*
X02164Y00535*
X02163Y00536*
X02161Y00537*
X0216Y00538*
X02158Y00539*
X02156Y00539*
X02155Y0054*
X02153*
X02151Y0054*
X01979*
X01977Y00541*
X01976Y00542*
X01974Y00542*
X01972*
X0197Y00543*
G37*
G36*
X01534Y005D02*
X01477D01*
Y00489*
X01505*
X01534*
Y005*
G37*
G36*
Y0047D02*
X01505D01*
X01477*
Y00459*
X01534*
Y00465*
Y0047*
G37*
G36*
X01388Y00428D02*
X01346D01*
Y00409*
X01367*
X01388*
Y00428*
G37*
G36*
X0166Y00465D02*
X0162D01*
Y00428*
Y0039*
X0166*
Y00465*
G37*
G36*
X01601D02*
X01561D01*
Y0039*
X01601*
Y00428*
Y00465*
G37*
G36*
X01388Y0039D02*
X01367D01*
X01346*
Y00371*
X01388*
Y0039*
G37*
G36*
X01399Y00246D02*
X01351D01*
Y00227*
X01399*
Y00246*
G37*
G36*
X0132D02*
X01272D01*
Y00227*
X0132*
Y00246*
G37*
G36*
X01399Y00196D02*
X01351D01*
Y00177*
X01399*
Y00196*
G37*
G36*
X0132D02*
X01272D01*
Y00177*
X0132*
Y00196*
G37*
%LNpwr_board_final_copper_signal_bot-3*%
%LPD*%
G36*
X02683Y01812D02*
X02636D01*
Y01794*
X02668*
X02701*
Y01812*
X02701*
Y01728*
X0275Y0168*
X0276Y01665*
Y01638*
X02741Y01619*
X02739*
Y0159*
Y0156*
X02759*
X0276Y0156*
X02742*
X02742Y01559*
X02741Y01559*
Y01558*
X0276Y0154*
Y01495*
X0272Y01455*
X0268*
X02679Y01455*
X02678*
X02654Y01464*
X02653Y01463*
Y01455*
X02678*
X0268Y01455*
X0259*
Y01501*
X02592Y01499*
Y01489*
X02623*
X02653*
Y01499*
X02659*
X02675Y01515*
X02695Y01535*
X02701Y0156*
X02703*
Y0159*
Y01619*
X027*
X0269Y0163*
X0269*
X0261Y0171*
X02553*
X02517Y01742*
X02521*
Y0178*
X02548*
Y01806*
X02603*
Y01812*
X02683Y01812*
G37*
G36*
X02305Y01515D02*
Y01506D01*
X02333*
Y01495*
X02345*
Y01465*
X0235*
Y0126*
Y01235*
X0228*
Y01364*
X02285Y0137*
X02289Y01376*
X02291Y01384*
Y01392*
X02289Y01399*
X02285Y01406*
X0228Y01411*
Y01445*
X0226Y01465*
X0225*
Y01515*
X02305*
G37*
G36*
X02493Y01626D02*
X02548D01*
Y016*
X02574*
Y01562*
X02603*
X02602Y01562*
X0258*
Y0156*
X0258Y0156*
Y0148*
X02561Y01461*
X02556*
Y0144*
Y01418*
X02567*
X02567Y01418*
X0258Y014*
Y00975*
X0246*
X02404Y00984*
X02403Y00983*
Y00987*
X02348*
Y01015*
X0232*
Y01055*
X0232Y01057*
X0236Y01105*
X0242Y01145*
Y0124*
X0236Y01275*
Y01456*
X02368Y01465*
X02378*
Y01495*
Y01524*
X02368*
X0236Y01525*
X0247*
Y01616*
X02493Y01628*
Y01626*
G37*
G36*
X02725Y01235D02*
Y00595D01*
X0278Y0054*
Y0017*
X02785Y00165*
X0278Y0016*
X02555*
Y00425*
X02595Y00465*
Y01236*
X02598Y01239*
X02725Y01235*
G37*
%LNpwr_board_final_copper_signal_bot-4*%
%LPC*%
G36*
X02603Y01753D02*
X02574D01*
Y01742*
X02603*
Y01753*
G37*
G36*
X02701Y01755D02*
X02688D01*
Y01737*
X02701*
Y01755*
G37*
G36*
X02649D02*
X02636D01*
Y01737*
X02649*
Y01755*
G37*
G36*
X02653Y01465D02*
X02623D01*
X02592*
Y01455*
X02653*
Y01465*
G37*
G36*
X02321Y01483D02*
X02305D01*
Y01465*
X02321*
Y01483*
G37*
G36*
X02521Y01573D02*
X02493D01*
Y01562*
X02521*
Y01573*
G37*
G36*
X02424Y01524D02*
X02414D01*
Y01512*
X02424*
Y01524*
G37*
G36*
Y01477D02*
X02414D01*
Y01465*
X02424*
Y01477*
G37*
G36*
X02517Y01461D02*
X02506D01*
Y01418*
X02517*
Y0144*
Y01461*
G37*
G36*
X02403Y01052D02*
X02375D01*
Y01042*
X02403*
Y01052*
G37*
G36*
X02684Y00329D02*
Y00295D01*
Y0026*
X02689Y00265*
X02695Y00276*
X02699Y00288*
Y00301*
X02695Y00313*
X02689Y00324*
X02684Y00329*
G37*
G36*
X02617D02*
X02612Y00324D01*
X02605Y00313*
X02602Y00301*
Y00288*
X02605Y00276*
X02612Y00265*
X02617Y0026*
Y00295*
Y00329*
G37*
%LNpwr_board_final_copper_signal_bot-5*%
%LPD*%
G54D10*
X02333Y01495D03*
X02396D03*
X01763Y01485D03*
X01826D03*
X02721Y0159D03*
X02658D03*
X02061Y016D03*
X01998D03*
G54D11*
X02536Y0144D03*
X02623Y01402D03*
Y01477D03*
X02073Y01537D03*
Y01462D03*
X01986Y015D03*
G54D15*
X02685Y01685D03*
X0205D03*
X0138Y0121D03*
X0111Y01045D03*
X01105Y0147D03*
X014Y00775D03*
X0169Y0054D03*
X0105Y0059D03*
X01221Y0004D03*
X0105D03*
G54D16*
X01358Y0141D03*
X01321D03*
X01298Y00715D03*
X01261D03*
X01454Y0068D03*
X01417D03*
X01203Y00628D03*
X01167D03*
G54D20*
X00907Y007D03*
X01022D03*
X01217Y0077D03*
X01331D03*
X01609Y0068D03*
X01723D03*
G54D27*
X01335Y00105D03*
Y00212D03*
G54D37*
X01505Y00542D03*
Y0048D03*
G54D41*
X01517Y0026D02*
X01855D01*
X02045Y0045*
X02294*
X00225Y01241D02*
Y01428D01*
X00237Y0144D02*
X0037D01*
X00225Y01241D02*
X00237Y0123D01*
X00225Y01428D02*
X00237Y0144D01*
Y0123D02*
X0029D01*
X02305Y00461D02*
Y00539D01*
X0193Y0086D02*
X01985D01*
X02305Y00539*
X00835Y01385D02*
X00995D01*
X00622Y01172D02*
X00835Y01385D01*
X00295Y00923D02*
X00374Y00845D01*
X00465*
X00415Y00935D02*
X0045D01*
X00398Y00951D02*
X00415Y00935D01*
X00379Y0097D02*
X00398Y00951D01*
D01*
X00622Y01121D02*
Y01172D01*
X0111Y01351D02*
Y01384D01*
Y01351D02*
X01122Y0134D01*
X01169*
X01505Y00271D02*
Y00279D01*
Y00271D02*
X01517Y0026D01*
X00379Y0097D02*
Y0114D01*
X0029Y0123D02*
X00379Y0114D01*
X0059Y0166D02*
X00804D01*
X0037Y0144D02*
X0059Y0166D01*
X00804D02*
X00814Y0167D01*
X01973Y00522D02*
X02151D01*
X0197Y00525D02*
X01973Y00522D01*
X02294Y0045D02*
X02305Y00461D01*
X01315Y00335D02*
X01685D01*
X0173Y0038D02*
Y00395D01*
X01685Y00335D02*
X0173Y0038D01*
X01304Y00346D02*
X01315Y00335D01*
X01304Y00346D02*
Y004D01*
X01723Y00621D02*
Y0068D01*
X0171Y0061D02*
X01712D01*
X01723Y00621*
X01505Y00542D02*
X01599D01*
X01689Y0054D02*
X0169D01*
G54D42*
X00165Y0125D02*
Y01815D01*
X00216Y01865D02*
X01002D01*
X00165Y0125D02*
X00295Y0112D01*
X00165Y01815D02*
X00216Y01865D01*
X01321Y0141D02*
X01321Y0141D01*
X01321Y01448D02*
X01321Y01448D01*
X01321Y0141D02*
Y01448D01*
X01318Y01344D02*
X01321Y01347D01*
Y0141*
X01367Y004D02*
X01404D01*
X0112Y0077D02*
X01217D01*
X0111Y0076D02*
X0112Y0077D01*
X01725Y0045D02*
X0193D01*
X0194Y00535D02*
X01945Y0054D01*
X0193Y0045D02*
X0194Y00459D01*
Y00535*
X01945Y0054D02*
Y00572D01*
X01705Y0043D02*
X01725Y0045D01*
X0111Y0076D02*
X01155Y00715D01*
X0108Y0079D02*
X0111Y0076D01*
X01262Y0071D02*
X01262D01*
X01155Y00715D02*
X01257D01*
X01262Y0071*
X00907Y007D02*
Y00777D01*
X0092Y0079*
X0108*
X0136Y00305D02*
X01715D01*
X01139Y01853D02*
Y01945D01*
X0111Y01825D02*
X01139Y01853D01*
X00814Y0167D02*
X00969Y01825D01*
X0111*
X01945Y00572D02*
X01953Y00579D01*
Y00796D02*
X01957Y008D01*
X01953Y00579D02*
Y00796D01*
X0134Y00217D02*
Y00285D01*
X01335Y00212D02*
X0134Y00217D01*
Y00285D02*
X0136Y00305D01*
X01785Y00375D02*
Y00395D01*
X01715Y00305D02*
X01785Y00375D01*
X0175Y0043D02*
X01785Y00395D01*
X01705Y0043D02*
X0175D01*
X0161Y00428D02*
X01703D01*
X01705Y0043*
X01598Y0044D02*
X0161Y00428D01*
X01505Y0044D02*
X01598D01*
X01505D02*
Y0048D01*
G54D43*
X0203Y01295D02*
X02223D01*
X02255Y013D02*
X02256Y01301D01*
X02228Y013D02*
X02255D01*
X02223Y01295D02*
X02228Y013D01*
X01569Y01426D02*
X01576Y01419D01*
Y01366D02*
Y01419D01*
X01569Y01426D02*
Y01428D01*
X01585Y00632D02*
X01592Y0064D01*
X01437Y00591D02*
Y00603D01*
X01466Y00632D02*
X01585D01*
X01437Y00603D02*
X01466Y00632D01*
X01592Y0064D02*
Y00663D01*
X01609Y0068*
X01303Y00591D02*
Y00618D01*
X01296Y00625D02*
X01303Y00618D01*
X01255Y00625D02*
X01296D01*
X01437Y00442D02*
Y00485D01*
Y00442D02*
X0144Y0044D01*
X0125Y00525D02*
X01251Y00526D01*
X0132*
X01303Y00401D02*
Y00485D01*
Y00401D02*
X01303Y004D01*
X01599Y00542D02*
X0161Y00531D01*
X0147Y00545D02*
X01503D01*
X01465Y0055D02*
X0147Y00545D01*
X01419Y0055D02*
X01465D01*
X01503Y00545D02*
X01505Y00542D01*
X0132Y0055D02*
X01419D01*
G54D44*
X02083Y01382D02*
X02089Y01388D01*
X02261*
X01417Y00608D02*
X01429Y0062D01*
Y00635*
X0097Y0124D02*
Y01285D01*
X00981Y01296*
X01293*
X01417Y00447D02*
Y00485D01*
X01415Y00445D02*
X01417Y00447D01*
X014Y00445D02*
X01401Y00446D01*
Y00485*
X01338Y00446D02*
X0134Y00445D01*
X01338Y00446D02*
Y00485D01*
X01322Y00447D02*
Y00485D01*
Y00447D02*
X01325Y00445D01*
X01358Y013D02*
Y0141D01*
X0137Y00402D02*
Y0045D01*
X01367Y004D02*
X0137Y00402D01*
X01353Y01296D02*
X01358Y013D01*
X01293Y01296D02*
X01353D01*
X01315Y00643D02*
X01322Y00636D01*
X0137Y00642D02*
D01*
X01385Y00591D02*
Y00624D01*
X0137Y00623D02*
Y00642D01*
Y00691D01*
X01385Y00624D02*
X01389Y00628D01*
X01338Y00591D02*
Y00655D01*
X01245Y00686D02*
X01348D01*
X01354Y00611D02*
D01*
X01348Y00686D02*
X01354Y0068D01*
X01322Y00591D02*
Y00636D01*
X01389Y00628D02*
Y0063D01*
X01354Y00648D02*
Y0068D01*
Y00611D02*
Y00648D01*
X01328Y00665D02*
X01338Y00655D01*
X01281Y00643D02*
X01315D01*
X0137Y00691D02*
X0137Y00692D01*
X0137Y00591D02*
Y00617D01*
X01361Y00713D02*
X0137Y00704D01*
X01354Y00648D02*
D01*
X0137Y00692D02*
Y00704D01*
X0137Y00617D02*
Y00623D01*
Y00617D02*
D01*
X01354Y00591D02*
Y00611D01*
X0128Y01225D02*
Y01284D01*
X01293Y01296*
X01415Y00725D02*
Y00759D01*
X014Y00775D02*
X01415Y00759D01*
X014Y00775D02*
D01*
X01331Y0077D02*
X01387D01*
X01389Y00771*
X01396*
X014Y0077D02*
Y00775D01*
X01037Y00685D02*
X01243D01*
X01022Y007D02*
X01037Y00685D01*
X01243D02*
X01245Y00686D01*
X01055Y00645D02*
X01075Y00665D01*
X01259*
X01281Y00643*
X01259Y00665D02*
X01259D01*
X01415Y00678D02*
Y00725D01*
Y00678D02*
X01415Y00678D01*
X013Y00665D02*
X01328D01*
X01296Y00713D02*
X01361D01*
X00915Y00645D02*
X01055D01*
X00905Y00655D02*
X00915Y00645D01*
X00905Y00697D02*
X00907Y007D01*
X00905Y00655D02*
Y00697D01*
X01409Y00622D02*
Y00653D01*
X01401Y00614D02*
X01409Y00622D01*
X01409Y00653D02*
Y00671D01*
X01409Y00653D02*
X01409Y00653D01*
X01417Y00591D02*
Y00608D01*
X01401Y00591D02*
Y00614D01*
X01409Y00671D02*
X01415Y00677D01*
X01415Y00725D02*
X01415Y00725D01*
X01385Y00454D02*
Y00485D01*
X0138Y0045D02*
X01385Y00454D01*
X0137Y0045D02*
X0138D01*
X0137D02*
Y00485D01*
X01354Y00454D02*
Y00485D01*
Y00454D02*
X01358Y0045D01*
X0137*
X01303Y00485D02*
X01303Y00484D01*
Y004D02*
X01304Y004D01*
G54D45*
X01765Y01464D02*
X0179Y0144D01*
X01765Y01464D02*
Y01483D01*
X01763Y01498D02*
X01785Y0152D01*
X01763Y01485D02*
Y01498D01*
X01405Y01235D02*
Y01405D01*
X0138Y0121D02*
X01405Y01235D01*
X01332Y0121D02*
X0138D01*
X01169Y0134D02*
X01243D01*
Y01344*
X0111Y01155D02*
Y01226D01*
X01124Y0124D02*
X01234D01*
X0111Y01226D02*
X01124Y0124D01*
X01318Y01223D02*
X01332Y0121D01*
X01318Y01223D02*
Y01245D01*
G54D51*
X02454Y00295D03*
X0265D03*
X00295Y0031D03*
Y00113D03*
Y01931D03*
Y01735D03*
Y01525D03*
Y01328D03*
Y00715D03*
Y00518D03*
Y0112D03*
Y00923D03*
G54D52*
X00645Y00845D03*
X00645Y01745D03*
G54D53*
X01822Y0194D03*
X01625D03*
X01335Y01945D03*
X01139D03*
X02435Y0194D03*
X02239D03*
G54D54*
X02083Y01382D03*
X02261Y01388D03*
X02256Y01301D03*
X023Y01275D03*
Y0125D03*
X02325Y01275D03*
X0179Y0144D03*
X01785Y0152D03*
X02265Y01495D03*
X02609Y01166D03*
X0261Y01105D03*
Y01135D03*
X0203Y01295D03*
X01569Y01428D03*
X01576Y01366D03*
X01005Y01385D03*
X01321Y01448D03*
X00465Y00845D03*
X0045Y00935D03*
X01Y0155D03*
X0061Y0147D03*
Y0156D03*
X01404Y004D03*
X01416Y00304D03*
X01002Y01865D03*
X01957Y008D03*
X0173Y00395D03*
X01705Y0043D03*
X0171Y0061D03*
X01405Y01405D03*
X0193Y0086D03*
X01645Y00835D03*
X0184Y00635D03*
X00814Y0167D03*
X0197Y00525D03*
X01953Y00579D03*
X01505Y00279D03*
X0184Y00665D03*
X01645Y00865D03*
X02151Y00522D03*
G54D55*
X00805Y00845D03*
X0279Y0168D03*
Y01545D03*
Y01445D03*
Y01325D03*
Y01215D03*
Y01085D03*
Y0096D03*
Y0085D03*
Y0076D03*
Y00665D03*
X00115Y0132D03*
Y01205D03*
Y01085D03*
Y0074D03*
Y0062D03*
Y00525D03*
Y00445D03*
Y00345D03*
Y00235D03*
X0174Y0004D03*
X01845D03*
X0195D03*
X02055D03*
X0216D03*
X00805Y0089D03*
X00975Y01725D03*
X01535Y0069D03*
Y0073D03*
X01485Y0021D03*
X0145D03*
X01005Y0175D03*
X0095Y017D03*
X01645Y0017D03*
X01485D03*
X0145D03*
X0138Y0166D03*
Y01625D03*
X01405Y0149D03*
Y01535D03*
X015Y0069D03*
Y0073D03*
X00622Y01121D03*
G54D56*
X01429Y00635D03*
X0097Y0124D03*
X01389Y0063D03*
G54D57*
X0165Y01368D03*
X0183D03*
G54D58*
X0174Y01115D03*
G54D59*
X02348Y01015D03*
Y01195D03*
X02548Y0178D03*
Y016D03*
X01888Y0177D03*
Y0159D03*
G54D60*
X02095Y01105D03*
X02295Y0169D03*
X01635Y0168D03*
G54D61*
X0111Y01175D03*
Y01404D03*
G54D62*
X02668Y01775D03*
X02761D03*
X02101Y0177D03*
X02008D03*
G54D63*
X01318Y01344D03*
X01243D03*
Y01245D03*
X0128D03*
X01318D03*
G54D64*
X0105Y00145D03*
X0105Y005D03*
G54D65*
X0132Y0055D03*
Y00526D03*
X01419Y0055D03*
G54D66*
X01303Y00485D03*
X01437D03*
Y00591D03*
X01303D03*
G54D67*
X01322Y00485D03*
X01338D03*
X01354D03*
X0137D03*
X01385D03*
X01401D03*
X01417D03*
Y00591D03*
X01401D03*
X01385D03*
X0137D03*
X01354D03*
X01338D03*
X01322D03*
G54D68*
X0161Y00531D03*
Y00428D03*
G54D69*
X01415Y00725D03*
X01456D03*
X01259Y00665D03*
X013D03*
G54D70*
X01304Y004D03*
X01367D03*
G54D71*
X01763Y01485D02*
X01765Y01483D01*
X0165Y01377D02*
Y01461D01*
X01673Y01485*
X01763*
G54D72*
X0231Y0126D02*
Y01313D01*
X02325Y01218D02*
Y01275D01*
X02328Y01196D02*
X0233Y01195D01*
X02348*
X02328Y01196D02*
Y01214D01*
X02325Y01218D02*
X02328Y01214D01*
G54D73*
X02548Y016D02*
X02648D01*
X02658Y0159*
G54D74*
X0016Y00805D02*
Y00984D01*
Y00805D02*
X00204Y0076D01*
X0016Y00984D02*
X00295Y0112D01*
G54D75*
X02095Y01776D02*
X02101Y0177D01*
X02761Y01775D02*
X02775Y01788D01*
M02*