%FSTAX23Y23*%
%MOIN*%
%SFA1B1*%

%IPPOS*%
%ADD137C,0.005000*%
%ADD138C,0.006670*%
%LNpwr_board_final_drawing_1-1*%
%LPD*%
G54D137*
X02434Y00275D02*
Y00315D01*
X02474*
Y00275*
X02434*
X0263D02*
Y00315D01*
X0267*
Y00275*
X0263*
X00275Y0029D02*
Y0033D01*
X00315*
Y0029*
X00275*
Y00093D02*
Y00133D01*
X00315*
Y00093*
X00275*
X01822Y0192D02*
X01802Y0196D01*
X01842*
X01822Y0192*
X01625D02*
X01605Y0196D01*
X01645*
X01625Y0192*
X01335Y01925D02*
X01315Y01965D01*
X01355*
X01335Y01925*
X01139D02*
X01119Y01965D01*
X01159*
X01139Y01925*
X00275Y01911D02*
Y01951D01*
X00315*
Y01911*
X00275*
Y01715D02*
Y01755D01*
X00315*
Y01715*
X00275*
Y01505D02*
Y01545D01*
X00315*
Y01505*
X00275*
Y01308D02*
Y01348D01*
X00315*
Y01308*
X00275*
Y00695D02*
Y00735D01*
X00315*
Y00695*
X00275*
Y00498D02*
Y00538D01*
X00315*
Y00498*
X00275*
X02435Y0192D02*
X02415Y0196D01*
X02455*
X02435Y0192*
X02239D02*
X02219Y0196D01*
X02259*
X02239Y0192*
X00275Y011D02*
Y0114D01*
X00315*
Y011*
X00275*
Y00903D02*
Y00943D01*
X00315*
Y00903*
X00275*
X02083Y01362D02*
X02093Y01372D01*
X02103*
X02093Y01382*
X02103Y01392*
X02093*
X02083Y01402*
X02073Y01392*
X02063*
X02073Y01382*
X02063Y01372*
X02073*
X02083Y01362*
X02261Y01368D02*
X02271Y01378D01*
X02281*
X02271Y01388*
X02281Y01398*
X02271*
X02261Y01408*
X02251Y01398*
X02241*
X02251Y01388*
X02241Y01378*
X02251*
X02261Y01368*
X02256Y01281D02*
X02266Y01291D01*
X02276*
X02266Y01301*
X02276Y01311*
X02266*
X02256Y01321*
X02246Y01311*
X02236*
X02246Y01301*
X02236Y01291*
X02246*
X02256Y01281*
X0228Y01255D02*
X0229Y01275D01*
X0228Y01295*
X023Y01285*
X0232Y01295*
X0231Y01275*
X0232Y01255*
X023Y01265*
X0228Y01255*
Y0123D02*
X0229Y0125D01*
X0228Y0127*
X023Y0126*
X0232Y0127*
X0231Y0125*
X0232Y0123*
X023Y0124*
X0228Y0123*
X02305Y01255D02*
X02315Y01275D01*
X02305Y01295*
X02325Y01285*
X02345Y01295*
X02335Y01275*
X02345Y01255*
X02325Y01265*
X02305Y01255*
X0177Y0142D02*
X0178Y0144D01*
X0177Y0146*
X0179Y0145*
X0181Y0146*
X018Y0144*
X0181Y0142*
X0179Y0143*
X0177Y0142*
X01765Y015D02*
X01775Y0152D01*
X01765Y0154*
X01785Y0153*
X01805Y0154*
X01795Y0152*
X01805Y015*
X01785Y0151*
X01765Y015*
X02265Y01475D02*
X02275Y01485D01*
X02285*
X02275Y01495*
X02285Y01505*
X02275*
X02265Y01515*
X02255Y01505*
X02245*
X02255Y01495*
X02245Y01485*
X02255*
X02265Y01475*
X02589Y01146D02*
X02599Y01166D01*
X02589Y01186*
X02609Y01176*
X02629Y01186*
X02619Y01166*
X02629Y01146*
X02609Y01156*
X02589Y01146*
X0259Y01085D02*
X026Y01105D01*
X0259Y01125*
X0261Y01115*
X0263Y01125*
X0262Y01105*
X0263Y01085*
X0261Y01095*
X0259Y01085*
Y01115D02*
X026Y01135D01*
X0259Y01155*
X0261Y01145*
X0263Y01155*
X0262Y01135*
X0263Y01115*
X0261Y01125*
X0259Y01115*
X0201Y01275D02*
X0202Y01295D01*
X0201Y01315*
X0203Y01305*
X0205Y01315*
X0204Y01295*
X0205Y01275*
X0203Y01285*
X0201Y01275*
X01549Y01408D02*
X01559Y01428D01*
X01549Y01448*
X01569Y01438*
X01589Y01448*
X01579Y01428*
X01589Y01408*
X01569Y01418*
X01549Y01408*
X01556Y01346D02*
X01566Y01366D01*
X01556Y01386*
X01576Y01376*
X01596Y01386*
X01586Y01366*
X01596Y01346*
X01576Y01356*
X01556Y01346*
X00985Y01365D02*
X00995Y01385D01*
X00985Y01405*
X01005Y01395*
X01025Y01405*
X01015Y01385*
X01025Y01365*
X01005Y01375*
X00985Y01365*
X01301Y01428D02*
X01311Y01448D01*
X01301Y01468*
X01321Y01458*
X01341Y01468*
X01331Y01448*
X01341Y01428*
X01321Y01438*
X01301Y01428*
X00795Y00835D02*
Y00825D01*
X00815*
Y00835*
X00825*
Y00855*
X00815*
Y00865*
X00795*
Y00855*
X00785*
Y00835*
X00795*
X00445Y00825D02*
X00455Y00845D01*
X00445Y00865*
X00465Y00855*
X00485Y00865*
X00475Y00845*
X00485Y00825*
X00465Y00835*
X00445Y00825*
X0043Y00915D02*
X0044Y00935D01*
X0043Y00955*
X0045Y00945*
X0047Y00955*
X0046Y00935*
X0047Y00915*
X0045Y00925*
X0043Y00915*
X0098Y0153D02*
X0099Y0155D01*
X0098Y0157*
X01Y0156*
X0102Y0157*
X0101Y0155*
X0102Y0153*
X01Y0154*
X0098Y0153*
X0059Y0145D02*
X006Y0147D01*
X0059Y0149*
X0061Y0148*
X0063Y0149*
X0062Y0147*
X0063Y0145*
X0061Y0146*
X0059Y0145*
Y0154D02*
X006Y0156D01*
X0059Y0158*
X0061Y0157*
X0063Y0158*
X0062Y0156*
X0063Y0154*
X0061Y0155*
X0059Y0154*
X0278Y0167D02*
Y0166D01*
X028*
Y0167*
X0281*
Y0169*
X028*
Y017*
X0278*
Y0169*
X0277*
Y0167*
X0278*
Y01535D02*
Y01525D01*
X028*
Y01535*
X0281*
Y01555*
X028*
Y01565*
X0278*
Y01555*
X0277*
Y01535*
X0278*
Y01435D02*
Y01425D01*
X028*
Y01435*
X0281*
Y01455*
X028*
Y01465*
X0278*
Y01455*
X0277*
Y01435*
X0278*
Y01315D02*
Y01305D01*
X028*
Y01315*
X0281*
Y01335*
X028*
Y01345*
X0278*
Y01335*
X0277*
Y01315*
X0278*
Y01205D02*
Y01195D01*
X028*
Y01205*
X0281*
Y01225*
X028*
Y01235*
X0278*
Y01225*
X0277*
Y01205*
X0278*
Y01075D02*
Y01065D01*
X028*
Y01075*
X0281*
Y01095*
X028*
Y01105*
X0278*
Y01095*
X0277*
Y01075*
X0278*
Y0095D02*
Y0094D01*
X028*
Y0095*
X0281*
Y0097*
X028*
Y0098*
X0278*
Y0097*
X0277*
Y0095*
X0278*
Y0084D02*
Y0083D01*
X028*
Y0084*
X0281*
Y0086*
X028*
Y0087*
X0278*
Y0086*
X0277*
Y0084*
X0278*
Y0075D02*
Y0074D01*
X028*
Y0075*
X0281*
Y0077*
X028*
Y0078*
X0278*
Y0077*
X0277*
Y0075*
X0278*
Y00655D02*
Y00645D01*
X028*
Y00655*
X0281*
Y00675*
X028*
Y00685*
X0278*
Y00675*
X0277*
Y00655*
X0278*
X01429Y00615D02*
X01439Y00625D01*
X01449*
X01439Y00635*
X01449Y00645*
X01439*
X01429Y00655*
X01419Y00645*
X01409*
X01419Y00635*
X01409Y00625*
X01419*
X01429Y00615*
X00105Y0131D02*
Y013D01*
X00125*
Y0131*
X00135*
Y0133*
X00125*
Y0134*
X00105*
Y0133*
X00095*
Y0131*
X00105*
Y01195D02*
Y01185D01*
X00125*
Y01195*
X00135*
Y01215*
X00125*
Y01225*
X00105*
Y01215*
X00095*
Y01195*
X00105*
Y01075D02*
Y01065D01*
X00125*
Y01075*
X00135*
Y01095*
X00125*
Y01105*
X00105*
Y01095*
X00095*
Y01075*
X00105*
Y0073D02*
Y0072D01*
X00125*
Y0073*
X00135*
Y0075*
X00125*
Y0076*
X00105*
Y0075*
X00095*
Y0073*
X00105*
Y0061D02*
Y006D01*
X00125*
Y0061*
X00135*
Y0063*
X00125*
Y0064*
X00105*
Y0063*
X00095*
Y0061*
X00105*
Y00515D02*
Y00505D01*
X00125*
Y00515*
X00135*
Y00535*
X00125*
Y00545*
X00105*
Y00535*
X00095*
Y00515*
X00105*
Y00435D02*
Y00425D01*
X00125*
Y00435*
X00135*
Y00455*
X00125*
Y00465*
X00105*
Y00455*
X00095*
Y00435*
X00105*
Y00335D02*
Y00325D01*
X00125*
Y00335*
X00135*
Y00355*
X00125*
Y00365*
X00105*
Y00355*
X00095*
Y00335*
X00105*
Y00225D02*
Y00215D01*
X00125*
Y00225*
X00135*
Y00245*
X00125*
Y00255*
X00105*
Y00245*
X00095*
Y00225*
X00105*
X0173Y0003D02*
Y0002D01*
X0175*
Y0003*
X0176*
Y0005*
X0175*
Y0006*
X0173*
Y0005*
X0172*
Y0003*
X0173*
X01835D02*
Y0002D01*
X01855*
Y0003*
X01865*
Y0005*
X01855*
Y0006*
X01835*
Y0005*
X01825*
Y0003*
X01835*
X0194D02*
Y0002D01*
X0196*
Y0003*
X0197*
Y0005*
X0196*
Y0006*
X0194*
Y0005*
X0193*
Y0003*
X0194*
X02045D02*
Y0002D01*
X02065*
Y0003*
X02075*
Y0005*
X02065*
Y0006*
X02045*
Y0005*
X02035*
Y0003*
X02045*
X0215D02*
Y0002D01*
X0217*
Y0003*
X0218*
Y0005*
X0217*
Y0006*
X0215*
Y0005*
X0214*
Y0003*
X0215*
X00795Y0088D02*
Y0087D01*
X00815*
Y0088*
X00825*
Y009*
X00815*
Y0091*
X00795*
Y009*
X00785*
Y0088*
X00795*
X0097Y0122D02*
X0098Y0123D01*
X0099*
X0098Y0124*
X0099Y0125*
X0098*
X0097Y0126*
X0096Y0125*
X0095*
X0096Y0124*
X0095Y0123*
X0096*
X0097Y0122*
X01389Y0061D02*
X01399Y0062D01*
X01409*
X01399Y0063*
X01409Y0064*
X01399*
X01389Y0065*
X01379Y0064*
X01369*
X01379Y0063*
X01369Y0062*
X01379*
X01389Y0061*
X01404Y0038D02*
X01414Y0039D01*
X01424*
X01414Y004*
X01424Y0041*
X01414*
X01404Y0042*
X01394Y0041*
X01384*
X01394Y004*
X01384Y0039*
X01394*
X01404Y0038*
X01416Y00284D02*
X01426Y00294D01*
X01436*
X01426Y00304*
X01436Y00314*
X01426*
X01416Y00324*
X01406Y00314*
X01396*
X01406Y00304*
X01396Y00294*
X01406*
X01416Y00284*
X00982Y01845D02*
X00992Y01865D01*
X00982Y01885*
X01002Y01875*
X01022Y01885*
X01012Y01865*
X01022Y01845*
X01002Y01855*
X00982Y01845*
X01937Y0078D02*
X01947Y008D01*
X01937Y0082*
X01957Y0081*
X01977Y0082*
X01967Y008*
X01977Y0078*
X01957Y0079*
X01937Y0078*
X0171Y00375D02*
X0172Y00395D01*
X0171Y00415*
X0173Y00405*
X0175Y00415*
X0174Y00395*
X0175Y00375*
X0173Y00385*
X0171Y00375*
X01685Y0041D02*
X01695Y0043D01*
X01685Y0045*
X01705Y0044*
X01725Y0045*
X01715Y0043*
X01725Y0041*
X01705Y0042*
X01685Y0041*
X0169Y0059D02*
X017Y0061D01*
X0169Y0063*
X0171Y0062*
X0173Y0063*
X0172Y0061*
X0173Y0059*
X0171Y006*
X0169Y0059*
X00965Y01715D02*
Y01705D01*
X00985*
Y01715*
X00995*
Y01735*
X00985*
Y01745*
X00965*
Y01735*
X00955*
Y01715*
X00965*
X01385Y01385D02*
X01395Y01405D01*
X01385Y01425*
X01405Y01415*
X01425Y01425*
X01415Y01405*
X01425Y01385*
X01405Y01395*
X01385Y01385*
X01525Y0068D02*
Y0067D01*
X01545*
Y0068*
X01555*
Y007*
X01545*
Y0071*
X01525*
Y007*
X01515*
Y0068*
X01525*
Y0072D02*
Y0071D01*
X01545*
Y0072*
X01555*
Y0074*
X01545*
Y0075*
X01525*
Y0074*
X01515*
Y0072*
X01525*
X01475Y002D02*
Y0019D01*
X01495*
Y002*
X01505*
Y0022*
X01495*
Y0023*
X01475*
Y0022*
X01465*
Y002*
X01475*
X0144D02*
Y0019D01*
X0146*
Y002*
X0147*
Y0022*
X0146*
Y0023*
X0144*
Y0022*
X0143*
Y002*
X0144*
X00995Y0174D02*
Y0173D01*
X01015*
Y0174*
X01025*
Y0176*
X01015*
Y0177*
X00995*
Y0176*
X00985*
Y0174*
X00995*
X0094Y0169D02*
Y0168D01*
X0096*
Y0169*
X0097*
Y0171*
X0096*
Y0172*
X0094*
Y0171*
X0093*
Y0169*
X0094*
X0191Y0084D02*
X0192Y0086D01*
X0191Y0088*
X0193Y0087*
X0195Y0088*
X0194Y0086*
X0195Y0084*
X0193Y0085*
X0191Y0084*
X01625Y00815D02*
X01635Y00835D01*
X01625Y00855*
X01645Y00845*
X01665Y00855*
X01655Y00835*
X01665Y00815*
X01645Y00825*
X01625Y00815*
X0182Y00615D02*
X0183Y00635D01*
X0182Y00655*
X0184Y00645*
X0186Y00655*
X0185Y00635*
X0186Y00615*
X0184Y00625*
X0182Y00615*
X00794Y0165D02*
X00804Y0167D01*
X00794Y0169*
X00814Y0168*
X00834Y0169*
X00824Y0167*
X00834Y0165*
X00814Y0166*
X00794Y0165*
X01635Y0016D02*
Y0015D01*
X01655*
Y0016*
X01665*
Y0018*
X01655*
Y0019*
X01635*
Y0018*
X01625*
Y0016*
X01635*
X01475D02*
Y0015D01*
X01495*
Y0016*
X01505*
Y0018*
X01495*
Y0019*
X01475*
Y0018*
X01465*
Y0016*
X01475*
X0144D02*
Y0015D01*
X0146*
Y0016*
X0147*
Y0018*
X0146*
Y0019*
X0144*
Y0018*
X0143*
Y0016*
X0144*
X0195Y00505D02*
X0196Y00525D01*
X0195Y00545*
X0197Y00535*
X0199Y00545*
X0198Y00525*
X0199Y00505*
X0197Y00515*
X0195Y00505*
X01933Y00559D02*
X01943Y00579D01*
X01933Y00599*
X01953Y00589*
X01973Y00599*
X01963Y00579*
X01973Y00559*
X01953Y00569*
X01933Y00559*
X01485Y00259D02*
X01495Y00279D01*
X01485Y00299*
X01505Y00289*
X01525Y00299*
X01515Y00279*
X01525Y00259*
X01505Y00269*
X01485Y00259*
X0137Y0165D02*
Y0164D01*
X0139*
Y0165*
X014*
Y0167*
X0139*
Y0168*
X0137*
Y0167*
X0136*
Y0165*
X0137*
Y01615D02*
Y01605D01*
X0139*
Y01615*
X014*
Y01635*
X0139*
Y01645*
X0137*
Y01635*
X0136*
Y01615*
X0137*
X01395Y0148D02*
Y0147D01*
X01415*
Y0148*
X01425*
Y015*
X01415*
Y0151*
X01395*
Y015*
X01385*
Y0148*
X01395*
Y01525D02*
Y01515D01*
X01415*
Y01525*
X01425*
Y01545*
X01415*
Y01555*
X01395*
Y01545*
X01385*
Y01525*
X01395*
X0182Y00645D02*
X0183Y00665D01*
X0182Y00685*
X0184Y00675*
X0186Y00685*
X0185Y00665*
X0186Y00645*
X0184Y00655*
X0182Y00645*
X01625Y00845D02*
X01635Y00865D01*
X01625Y00885*
X01645Y00875*
X01665Y00885*
X01655Y00865*
X01665Y00845*
X01645Y00855*
X01625Y00845*
X0149Y0068D02*
Y0067D01*
X0151*
Y0068*
X0152*
Y007*
X0151*
Y0071*
X0149*
Y007*
X0148*
Y0068*
X0149*
Y0072D02*
Y0071D01*
X0151*
Y0072*
X0152*
Y0074*
X0151*
Y0075*
X0149*
Y0074*
X0148*
Y0072*
X0149*
X00612Y01111D02*
Y01101D01*
X00632*
Y01111*
X00642*
Y01131*
X00632*
Y01141*
X00612*
Y01131*
X00602*
Y01111*
X00612*
X02131Y00502D02*
X02141Y00522D01*
X02131Y00542*
X02151Y00532*
X02171Y00542*
X02161Y00522*
X02171Y00502*
X02151Y00512*
X02131Y00502*
G54D138*
X00665Y00845D02*
D01*
X00664Y00846*
X00664Y00847*
X00664Y00849*
X00664Y0085*
X00663Y00851*
X00663Y00853*
X00662Y00854*
X00661Y00855*
X00661Y00856*
X0066Y00857*
X00659Y00858*
X00658Y00859*
X00657Y0086*
X00656Y00861*
X00655Y00862*
X00653Y00862*
X00652Y00863*
X00651Y00864*
X00649Y00864*
X00648Y00864*
X00647Y00864*
X00645Y00864*
X00644*
X00642Y00864*
X00641Y00864*
X0064Y00864*
X00638Y00864*
X00637Y00863*
X00636Y00862*
X00635Y00862*
X00633Y00861*
X00632Y0086*
X00631Y00859*
X0063Y00858*
X00629Y00857*
X00628Y00856*
X00628Y00855*
X00627Y00854*
X00626Y00853*
X00626Y00851*
X00625Y0085*
X00625Y00849*
X00625Y00847*
X00625Y00846*
X00625Y00845*
X00625Y00843*
X00625Y00842*
X00625Y0084*
X00625Y00839*
X00626Y00838*
X00626Y00836*
X00627Y00835*
X00628Y00834*
X00628Y00833*
X00629Y00832*
X0063Y00831*
X00631Y0083*
X00632Y00829*
X00633Y00828*
X00635Y00827*
X00636Y00827*
X00637Y00826*
X00638Y00825*
X0064Y00825*
X00641Y00825*
X00642Y00825*
X00644Y00825*
X00645*
X00647Y00825*
X00648Y00825*
X00649Y00825*
X00651Y00825*
X00652Y00826*
X00653Y00827*
X00655Y00827*
X00656Y00828*
X00657Y00829*
X00658Y0083*
X00659Y00831*
X0066Y00832*
X00661Y00833*
X00661Y00834*
X00662Y00835*
X00663Y00836*
X00663Y00838*
X00664Y00839*
X00664Y0084*
X00664Y00842*
X00664Y00843*
X00665Y00845*
X00665Y01745D02*
D01*
X00665Y01746*
X00665Y01747*
X00665Y01749*
X00664Y0175*
X00664Y01751*
X00663Y01753*
X00663Y01754*
X00662Y01755*
X00661Y01756*
X0066Y01757*
X00659Y01758*
X00658Y01759*
X00657Y0176*
X00656Y01761*
X00655Y01762*
X00654Y01762*
X00653Y01763*
X00651Y01764*
X0065Y01764*
X00648Y01764*
X00647Y01764*
X00646Y01764*
X00644*
X00643Y01764*
X00642Y01764*
X0064Y01764*
X00639Y01764*
X00638Y01763*
X00636Y01762*
X00635Y01762*
X00634Y01761*
X00633Y0176*
X00632Y01759*
X00631Y01758*
X0063Y01757*
X00629Y01756*
X00628Y01755*
X00627Y01754*
X00627Y01753*
X00626Y01751*
X00626Y0175*
X00625Y01749*
X00625Y01747*
X00625Y01746*
X00625Y01745*
X00625Y01743*
X00625Y01742*
X00625Y0174*
X00626Y01739*
X00626Y01738*
X00627Y01736*
X00627Y01735*
X00628Y01734*
X00629Y01733*
X0063Y01732*
X00631Y01731*
X00632Y0173*
X00633Y01729*
X00634Y01728*
X00635Y01727*
X00636Y01727*
X00638Y01726*
X00639Y01725*
X0064Y01725*
X00642Y01725*
X00643Y01725*
X00644Y01725*
X00646*
X00647Y01725*
X00648Y01725*
X0065Y01725*
X00651Y01725*
X00653Y01726*
X00654Y01727*
X00655Y01727*
X00656Y01728*
X00657Y01729*
X00658Y0173*
X00659Y01731*
X0066Y01732*
X00661Y01733*
X00662Y01734*
X00663Y01735*
X00663Y01736*
X00664Y01738*
X00664Y01739*
X00665Y0174*
X00665Y01742*
X00665Y01743*
X00665Y01745*
M02*