%FSTAX23Y23*%
%MOIN*%
%SFA1B1*%

%IPPOS*%
%ADD137C,0.005000*%
%LNpwr_board_final_drillmap_1-1*%
%LPD*%
G54D137*
X02428Y00295D02*
X02479D01*
X02454Y00269D02*
Y0032D01*
X02625Y00295D02*
X02676D01*
X0265Y00269D02*
Y0032D01*
X00599Y00845D02*
X0069D01*
X00645Y00799D02*
Y0089D01*
X006Y01745D02*
X0069D01*
X00645Y01699D02*
Y0179D01*
X0027Y0031D02*
X00321D01*
X00295Y00284D02*
Y00335D01*
X0027Y00113D02*
X00321D01*
X00295Y00087D02*
Y00138D01*
X01773Y0194D02*
X01871D01*
X01822Y0189D02*
Y01989D01*
X01576Y0194D02*
X01675D01*
X01625Y0189D02*
Y01989D01*
X01286Y01945D02*
X01385D01*
X01335Y01895D02*
Y01994D01*
X01089Y01945D02*
X01188D01*
X01139Y01895D02*
Y01994D01*
X0027Y01931D02*
X00321D01*
X00295Y01906D02*
Y01957D01*
X0027Y01735D02*
X00321D01*
X00295Y01709D02*
Y0176D01*
X0027Y01525D02*
X00321D01*
X00295Y01499D02*
Y0155D01*
X0027Y01328D02*
X00321D01*
X00295Y01302D02*
Y01353D01*
X0027Y00715D02*
X00321D01*
X00295Y00689D02*
Y0074D01*
X0027Y00518D02*
X00321D01*
X00295Y00492D02*
Y00543D01*
X02386Y0194D02*
X02485D01*
X02435Y0189D02*
Y01989D01*
X02189Y0194D02*
X02288D01*
X02239Y0189D02*
Y01989D01*
X0027Y0112D02*
X00321D01*
X00295Y01094D02*
Y01145D01*
X0027Y00923D02*
X00321D01*
X00295Y00897D02*
Y00948D01*
X02078Y01382D02*
X02088D01*
X02083Y01377D02*
Y01387D01*
X02256Y01388D02*
X02266D01*
X02261Y01383D02*
Y01393D01*
X02251Y01301D02*
X02261D01*
X02256Y01296D02*
Y01306D01*
X02294Y01275D02*
X02305D01*
X023Y01269D02*
Y0128D01*
X02294Y0125D02*
X02305D01*
X023Y01244D02*
Y01255D01*
X02319Y01275D02*
X0233D01*
X02325Y01269D02*
Y0128D01*
X01784Y0144D02*
X01795D01*
X0179Y01434D02*
Y01445D01*
X01779Y0152D02*
X0179D01*
X01785Y01514D02*
Y01525D01*
X0226Y01495D02*
X02269D01*
X02265Y0149D02*
Y01499D01*
X02603Y01166D02*
X02614D01*
X02609Y0116D02*
Y01172D01*
X02604Y01105D02*
X02615D01*
X0261Y01099D02*
Y0111D01*
X02604Y01135D02*
X02615D01*
X0261Y01129D02*
Y0114D01*
X02024Y01295D02*
X02035D01*
X0203Y01289D02*
Y013D01*
X01563Y01428D02*
X01575D01*
X01569Y01422D02*
Y01434D01*
X0157Y01366D02*
X01582D01*
X01576Y0136D02*
Y01372D01*
X00999Y01385D02*
X0101D01*
X01005Y01379D02*
Y0139D01*
X01316Y01448D02*
X01327D01*
X01321Y01442D02*
Y01454D01*
X00795Y00845D02*
X00814D01*
X00805Y00835D02*
Y00854D01*
X00459Y00845D02*
X0047D01*
X00465Y00839D02*
Y0085D01*
X00444Y00935D02*
X00455D01*
X0045Y00929D02*
Y0094D01*
X00994Y0155D02*
X01005D01*
X01Y01544D02*
Y01555D01*
X00604Y0147D02*
X00615D01*
X0061Y01464D02*
Y01475D01*
X00604Y0156D02*
X00615D01*
X0061Y01554D02*
Y01565D01*
X0278Y0168D02*
X02799D01*
X0279Y0167D02*
Y01689D01*
X0278Y01545D02*
X02799D01*
X0279Y01535D02*
Y01554D01*
X0278Y01445D02*
X02799D01*
X0279Y01435D02*
Y01454D01*
X0278Y01325D02*
X02799D01*
X0279Y01315D02*
Y01334D01*
X0278Y01215D02*
X02799D01*
X0279Y01205D02*
Y01224D01*
X0278Y01085D02*
X02799D01*
X0279Y01075D02*
Y01094D01*
X0278Y0096D02*
X02799D01*
X0279Y0095D02*
Y00969D01*
X0278Y0085D02*
X02799D01*
X0279Y0084D02*
Y00859D01*
X0278Y0076D02*
X02799D01*
X0279Y0075D02*
Y00769D01*
X0278Y00665D02*
X02799D01*
X0279Y00655D02*
Y00674D01*
X01424Y00635D02*
X01434D01*
X01429Y0063D02*
Y00639D01*
X00105Y0132D02*
X00124D01*
X00115Y0131D02*
Y01329D01*
X00105Y01205D02*
X00124D01*
X00115Y01195D02*
Y01214D01*
X00105Y01085D02*
X00124D01*
X00115Y01075D02*
Y01094D01*
X00105Y0074D02*
X00124D01*
X00115Y0073D02*
Y00749D01*
X00105Y0062D02*
X00124D01*
X00115Y0061D02*
Y00629D01*
X00105Y00525D02*
X00124D01*
X00115Y00515D02*
Y00534D01*
X00105Y00445D02*
X00124D01*
X00115Y00435D02*
Y00454D01*
X00105Y00345D02*
X00124D01*
X00115Y00335D02*
Y00354D01*
X00105Y00235D02*
X00124D01*
X00115Y00225D02*
Y00244D01*
X0173Y0004D02*
X01749D01*
X0174Y0003D02*
Y00049D01*
X01835Y0004D02*
X01854D01*
X01845Y0003D02*
Y00049D01*
X0194Y0004D02*
X01959D01*
X0195Y0003D02*
Y00049D01*
X02045Y0004D02*
X02064D01*
X02055Y0003D02*
Y00049D01*
X0215Y0004D02*
X02169D01*
X0216Y0003D02*
Y00049D01*
X00795Y0089D02*
X00814D01*
X00805Y0088D02*
Y00899D01*
X00965Y0124D02*
X00974D01*
X0097Y01235D02*
Y01244D01*
X01384Y0063D02*
X01394D01*
X01389Y00626D02*
Y00635D01*
X01399Y004D02*
X01409D01*
X01404Y00395D02*
Y00405D01*
X01411Y00304D02*
X01421D01*
X01416Y00299D02*
Y00309D01*
X00996Y01865D02*
X01008D01*
X01002Y01859D02*
Y01871D01*
X01951Y008D02*
X01963D01*
X01957Y00794D02*
Y00806D01*
X01725Y00395D02*
X01736D01*
X0173Y00389D02*
Y004D01*
X017Y0043D02*
X01711D01*
X01705Y00424D02*
Y00435D01*
X01705Y0061D02*
X01716D01*
X0171Y00604D02*
Y00615D01*
X00965Y01725D02*
X00984D01*
X00975Y01715D02*
Y01734D01*
X01399Y01405D02*
X0141D01*
X01405Y01399D02*
Y0141D01*
X01525Y0069D02*
X01544D01*
X01535Y0068D02*
Y00699D01*
X01525Y0073D02*
X01544D01*
X01535Y0072D02*
Y00739D01*
X01475Y0021D02*
X01494D01*
X01485Y002D02*
Y00219D01*
X0144Y0021D02*
X01459D01*
X0145Y002D02*
Y00219D01*
X00995Y0175D02*
X01014D01*
X01005Y0174D02*
Y01759D01*
X0094Y017D02*
X00959D01*
X0095Y0169D02*
Y01709D01*
X01924Y0086D02*
X01935D01*
X0193Y00854D02*
Y00865D01*
X01639Y00835D02*
X0165D01*
X01645Y00829D02*
Y0084D01*
X01834Y00635D02*
X01845D01*
X0184Y00629D02*
Y0064D01*
X00809Y0167D02*
X0082D01*
X00814Y01664D02*
Y01676D01*
X01636Y0017D02*
X01655D01*
X01645Y0016D02*
Y00179D01*
X01475Y0017D02*
X01494D01*
X01485Y0016D02*
Y00179D01*
X0144Y0017D02*
X01459D01*
X0145Y0016D02*
Y00179D01*
X01965Y00525D02*
X01976D01*
X0197Y00519D02*
Y0053D01*
X01947Y00579D02*
X01959D01*
X01953Y00573D02*
Y00585D01*
X015Y00279D02*
X01511D01*
X01505Y00273D02*
Y00285D01*
X0137Y0166D02*
X01389D01*
X0138Y0165D02*
Y01669D01*
X0137Y01625D02*
X01389D01*
X0138Y01615D02*
Y01634D01*
X01396Y0149D02*
X01415D01*
X01405Y0148D02*
Y01499D01*
X01396Y01535D02*
X01415D01*
X01405Y01525D02*
Y01544D01*
X01835Y00665D02*
X01846D01*
X0184Y00659D02*
Y0067D01*
X01639Y00865D02*
X0165D01*
X01645Y00859D02*
Y0087D01*
X0149Y0069D02*
X01509D01*
X015Y0068D02*
Y00699D01*
X0149Y0073D02*
X01509D01*
X015Y0072D02*
Y00739D01*
X00612Y01121D02*
X00632D01*
X00622Y01111D02*
Y01131D01*
X02145Y00522D02*
X02157D01*
X02151Y00516D02*
Y00528D01*
M02*