%FSTAX23Y23*%
%MOIN*%
%SFA1B1*%

%IPPOS*%
%ADD80R,0.063000X0.098000*%
%ADD81R,0.232020X0.251310*%
%ADD82R,0.043430X0.047370*%
%ADD83R,0.098000X0.063000*%
%ADD84R,0.251310X0.232020*%
%ADD85C,0.031620*%
%ADD86R,0.049340X0.031620*%
%ADD87R,0.143830X0.065090*%
%ADD88R,0.053280X0.063120*%
%ADD89R,0.031620X0.055240*%
%ADD90R,0.031620X0.032410*%
%ADD91R,0.216660X0.145400*%
%ADD92R,0.078800X0.015810*%
%ADD93R,0.015810X0.031560*%
%ADD94R,0.011870X0.031560*%
%ADD95R,0.055240X0.070990*%
%ADD96R,0.087130X0.062330*%
%ADD97R,0.026700X0.027690*%
%ADD98R,0.029260X0.045010*%
%ADD99R,0.115090X0.056030*%
%ADD100R,0.045010X0.029260*%
%ADD101C,0.084770*%
%ADD102C,0.068000*%
%ADD103C,0.126110*%
%ADD104C,0.027690*%
%ADD105C,0.039500*%
%ADD106C,0.023750*%
%LNpwr_board_final_soldermask_bot-1*%
%LPD*%
G36*
X01439Y00483D02*
X0132D01*
Y005*
X01439*
Y00483*
G37*
G54D80*
X0165Y01368D03*
X0183D03*
G54D81*
X0174Y01115D03*
G54D82*
X02333Y01495D03*
X02396D03*
X01763Y01485D03*
X01826D03*
X02721Y0159D03*
X02658D03*
X02061Y016D03*
X01998D03*
G54D83*
X02348Y01015D03*
Y01195D03*
X02548Y0178D03*
Y016D03*
X01888Y0177D03*
Y0159D03*
G54D84*
X02095Y01105D03*
X02295Y0169D03*
X01635Y0168D03*
G54D85*
X02685Y01685D03*
X0205D03*
X0138Y0121D03*
X0111Y01045D03*
X01105Y0147D03*
X014Y00775D03*
X0169Y0054D03*
X0105Y0059D03*
X01221Y0004D03*
X0105D03*
G54D86*
X02536Y0144D03*
X02623Y01402D03*
Y01477D03*
X02073Y01537D03*
Y01462D03*
X01986Y015D03*
G54D87*
X0111Y01175D03*
Y01404D03*
G54D88*
X02668Y01775D03*
X02761D03*
X02101Y0177D03*
X02008D03*
G54D89*
X01318Y01344D03*
X01243D03*
Y01245D03*
X0128D03*
X01318D03*
G54D90*
X01358Y0141D03*
X01321D03*
X01298Y00715D03*
X01261D03*
X01454Y0068D03*
X01417D03*
X01203Y00628D03*
X01167D03*
G54D91*
X0105Y00145D03*
X0105Y005D03*
G54D92*
X0132Y0055D03*
Y00526D03*
X01419Y0055D03*
G54D93*
X01303Y00485D03*
X01437D03*
Y00591D03*
X01303D03*
G54D94*
X01322Y00485D03*
X01338D03*
X01354D03*
X0137D03*
X01385D03*
X01401D03*
X01417D03*
Y00591D03*
X01401D03*
X01385D03*
X0137D03*
X01354D03*
X01338D03*
X01322D03*
G54D95*
X00907Y007D03*
X01022D03*
X01217Y0077D03*
X01331D03*
X01609Y0068D03*
X01723D03*
G54D96*
X0161Y00531D03*
Y00428D03*
G54D97*
X01415Y00725D03*
X01456D03*
X01259Y00665D03*
X013D03*
G54D98*
X01304Y004D03*
X01367D03*
G54D99*
X01335Y00105D03*
Y00212D03*
G54D100*
X01505Y00542D03*
Y0048D03*
G54D101*
X02454Y00295D03*
X0265D03*
X00295Y0031D03*
Y00113D03*
Y01931D03*
Y01735D03*
Y01525D03*
Y01328D03*
Y00715D03*
Y00518D03*
Y0112D03*
Y00923D03*
G54D102*
X00645Y00845D03*
X00645Y01745D03*
G54D103*
X01822Y0194D03*
X01625D03*
X01335Y01945D03*
X01139D03*
X02435Y0194D03*
X02239D03*
G54D104*
X02083Y01382D03*
X02261Y01388D03*
X02256Y01301D03*
X023Y01275D03*
Y0125D03*
X02325Y01275D03*
X0179Y0144D03*
X01785Y0152D03*
X02265Y01495D03*
X02609Y01166D03*
X0261Y01105D03*
Y01135D03*
X0203Y01295D03*
X01569Y01428D03*
X01576Y01366D03*
X01005Y01385D03*
X01321Y01448D03*
X00465Y00845D03*
X0045Y00935D03*
X01Y0155D03*
X0061Y0147D03*
Y0156D03*
X01404Y004D03*
X01416Y00304D03*
X01002Y01865D03*
X01957Y008D03*
X0173Y00395D03*
X01705Y0043D03*
X0171Y0061D03*
X01405Y01405D03*
X0193Y0086D03*
X01645Y00835D03*
X0184Y00635D03*
X00814Y0167D03*
X0197Y00525D03*
X01953Y00579D03*
X01505Y00279D03*
X0184Y00665D03*
X01645Y00865D03*
X02151Y00522D03*
G54D105*
X00805Y00845D03*
X0279Y0168D03*
Y01545D03*
Y01445D03*
Y01325D03*
Y01215D03*
Y01085D03*
Y0096D03*
Y0085D03*
Y0076D03*
Y00665D03*
X00115Y0132D03*
Y01205D03*
Y01085D03*
Y0074D03*
Y0062D03*
Y00525D03*
Y00445D03*
Y00345D03*
Y00235D03*
X0174Y0004D03*
X01845D03*
X0195D03*
X02055D03*
X0216D03*
X00805Y0089D03*
X00975Y01725D03*
X01535Y0069D03*
Y0073D03*
X01485Y0021D03*
X0145D03*
X01005Y0175D03*
X0095Y017D03*
X01645Y0017D03*
X01485D03*
X0145D03*
X0138Y0166D03*
Y01625D03*
X01405Y0149D03*
Y01535D03*
X015Y0069D03*
Y0073D03*
X00622Y01121D03*
G54D106*
X01429Y00635D03*
X0097Y0124D03*
X01389Y0063D03*
M02*