%FSTAX23Y23*%
%MOIN*%
%SFA1B1*%

%IPPOS*%
%ADD39C,0.010000*%
%ADD76C,0.007870*%
%ADD77C,0.001970*%
%ADD78C,0.003940*%
%ADD79C,0.003000*%
%LNpwr_board_final_legend_bot-1*%
%LPD*%
G54D39*
X02599Y01366D02*
Y01343D01*
X02587*
X02583Y01347*
Y01362*
X02587Y01366*
X02599*
X0256D02*
X02568Y01362D01*
X02576Y01355*
Y01347*
X02572Y01343*
X02564*
X0256Y01347*
Y01351*
X02564Y01355*
X02576*
X02148Y01272D02*
Y01287D01*
X02152Y01291*
X0216*
X02164Y01287*
Y01272*
X0216Y01268*
X02152*
X02156Y01276D02*
X02148Y01268D01*
X02152D02*
X02148Y01272D01*
X0214Y01268D02*
X02133D01*
X02136*
Y01291*
X0214Y01287*
X02121D02*
X02117Y01291D01*
X02109*
X02105Y01287*
Y01283*
X02109Y0128*
X02113*
X02109*
X02105Y01276*
Y01272*
X02109Y01268*
X02117*
X02121Y01272*
X01894Y01356D02*
X01909D01*
X01913Y01352*
Y01344*
X01909Y0134*
X01894*
X0189Y01344*
Y01352*
X01898Y01348D02*
X0189Y01356D01*
Y01352D02*
X01894Y01356D01*
X0189Y01364D02*
Y01371D01*
Y01368*
X01913*
X01909Y01364*
X0189Y01399D02*
Y01383D01*
X01905Y01399*
X01909*
X01913Y01395*
Y01387*
X01909Y01383*
X02391Y01433D02*
Y01456D01*
X02379*
X02375Y01452*
Y01445*
X02379Y01441*
X02391*
X02383D02*
X02375Y01433D01*
X02352D02*
X02367D01*
X02352Y01448*
Y01452*
X02356Y01456*
X02363*
X02367Y01452*
X02328Y01456D02*
X02344D01*
Y01445*
X02336Y01448*
X02332*
X02328Y01445*
Y01437*
X02332Y01433*
X0234*
X02344Y01437*
X01807Y01546D02*
Y01569D01*
X01796*
X01792Y01565*
Y01557*
X01796Y01553*
X01807*
X018D02*
X01792Y01546D01*
X01768D02*
X01784D01*
X01768Y01561*
Y01565*
X01772Y01569*
X0178*
X01784Y01565*
X01748Y01546D02*
Y01569D01*
X0176Y01557*
X01744*
X01317Y00631D02*
Y00647D01*
X01309*
X01307Y00645*
Y00639*
X01309Y00637*
X01317*
X01312D02*
X01307Y00631D01*
X01299Y00645D02*
Y00642D01*
X01301*
X01296*
X01299*
Y00634*
X01296Y00631*
X01288Y00642D02*
Y00631D01*
Y00637*
X01286Y00639*
X01283Y00642*
X0128*
X01273Y00631D02*
X01267D01*
X0127*
Y00642*
X01273*
X01259Y00626D02*
Y00642D01*
X01252*
X01249Y00639*
Y00634*
X01252Y00631*
X01259*
X01244D02*
X01238D01*
X01241*
Y00647*
X01244Y00645*
X01012Y01357D02*
X00989D01*
Y01346*
X00993Y01342*
X01*
X01004Y01346*
Y01357*
Y0135D02*
X01012Y01342D01*
Y01334D02*
Y01322D01*
X01008Y01318*
X01004Y01322*
Y0133*
X01Y01334*
X00996Y0133*
Y01318*
X00989Y0131D02*
X01012D01*
X01*
X00996Y01306*
Y01298*
X01Y01295*
X01012*
X00996Y01287D02*
X01008D01*
X01012Y01283*
Y01271*
X00996*
X01012Y01263D02*
X00996D01*
Y01251*
X01Y01247*
X01012*
X00993Y01235D02*
X00996D01*
Y01239*
Y01232*
Y01235*
X01008*
X01012Y01232*
X01679Y00772D02*
Y00795D01*
X01667*
X01663Y00791*
Y00783*
X01667Y0078*
X01679*
X01671D02*
X01663Y00772D01*
X01655Y00764D02*
Y00787D01*
X01643*
X0164Y00783*
Y00776*
X01643Y00772*
X01655*
X01624Y00764D02*
X0162D01*
X01616Y00768*
Y00787*
X01628*
X01632Y00783*
Y00776*
X01628Y00772*
X01616*
X01608D02*
X016D01*
X01604*
Y00795*
X01608Y00791*
X01028Y00793D02*
Y00816D01*
X01017*
X01013Y00812*
Y00805*
X01017Y00801*
X01028*
X01021D02*
X01013Y00793D01*
X01005D02*
Y00808D01*
X01001*
X00997Y00805*
Y00793*
Y00805*
X00993Y00808*
X00989Y00805*
Y00793*
X00977D02*
X00969D01*
X00965Y00797*
Y00805*
X00969Y00808*
X00977*
X00981Y00805*
Y00797*
X00977Y00793*
X00942Y00816D02*
Y00793D01*
X00954*
X00958Y00797*
Y00805*
X00954Y00808*
X00942*
X00922Y00793D02*
X0093D01*
X00934Y00797*
Y00805*
X0093Y00808*
X00922*
X00918Y00805*
Y00801*
X00934*
X0091Y00793D02*
X00902D01*
X00906*
Y00816*
X0091Y00812*
X01522Y00753D02*
Y00776D01*
X0151*
X01506Y00772*
Y00765*
X0151Y00761*
X01522*
X01514D02*
X01506Y00753D01*
X01494D02*
Y00772D01*
Y00765*
X01498*
X0149*
X01494*
Y00772*
X0149Y00776*
X01478D02*
Y00753D01*
X01467*
X01463Y00757*
Y00761*
Y00765*
X01467Y00768*
X01478*
X01451Y00772D02*
Y00768D01*
X01455*
X01447*
X01451*
Y00757*
X01447Y00753*
X01435D02*
X01427D01*
X01431*
Y00776*
X01435Y00772*
X01141Y00804D02*
X01118D01*
Y00792*
X01122Y00788*
X0113*
X01133Y00792*
Y00804*
Y00796D02*
X01141Y00788D01*
Y00776D02*
X01122D01*
X0113*
Y0078*
Y00772*
Y00776*
X01122*
X01118Y00772*
Y0076D02*
X01141D01*
Y00749*
X01137Y00745*
X01133*
X0113*
X01126Y00749*
Y0076*
X01118Y00737D02*
X01141D01*
Y00725*
X01137Y00721*
X01133*
X0113*
X01126Y00725*
Y00737*
X01141Y00713D02*
Y00705D01*
Y00709*
X01118*
X01122Y00713*
X02776Y01833D02*
Y01856D01*
X02764*
X0276Y01852*
Y01845*
X02764Y01841*
X02776*
X02768D02*
X0276Y01833D01*
X02737D02*
X02752D01*
X02737Y01848*
Y01852*
X02741Y01856*
X02748*
X02752Y01852*
X02713Y01833D02*
X02729D01*
X02713Y01848*
Y01852*
X02717Y01856*
X02725*
X02729Y01852*
X02717Y01528D02*
Y01551D01*
X02705*
X02701Y01547*
Y0154*
X02705Y01536*
X02717*
X02709D02*
X02701Y01528D01*
X02678D02*
X02693D01*
X02678Y01543*
Y01547*
X02682Y01551*
X0269*
X02693Y01547*
X0267Y01528D02*
X02662D01*
X02666*
Y01551*
X0267Y01547*
X02051Y01533D02*
Y01556D01*
X02039*
X02035Y01552*
Y01545*
X02039Y01541*
X02051*
X02043D02*
X02035Y01533D01*
X02012D02*
X02027D01*
X02012Y01548*
Y01552*
X02016Y01556*
X02023*
X02027Y01552*
X02004D02*
X02Y01556D01*
X01992*
X01988Y01552*
Y01537*
X01992Y01533*
X02*
X02004Y01537*
Y01552*
X02134Y01848D02*
Y01871D01*
X02122*
X02118Y01867*
Y0186*
X02122Y01856*
X02134*
X02126D02*
X02118Y01848D01*
X0211D02*
X02103D01*
X02106*
Y01871*
X0211Y01867*
X02091Y01852D02*
X02087Y01848D01*
X02079*
X02075Y01852*
Y01867*
X02079Y01871*
X02087*
X02091Y01867*
Y01863*
X02087Y0186*
X02075*
X02189Y01512D02*
Y01527D01*
X02193Y01531*
X02201*
X02205Y01527*
Y01512*
X02201Y01508*
X02193*
X02197Y01516D02*
X02189Y01508D01*
X02193D02*
X02189Y01512D01*
X02181Y01508D02*
X02174D01*
X02178*
Y01531*
X02181Y01527*
X02162Y01508D02*
X02154D01*
X02158*
Y01531*
X02162Y01527*
X01472Y01578D02*
X01457D01*
X01453Y01582*
Y0159*
X01457Y01594*
X01472*
X01476Y0159*
Y01582*
X01468Y01586D02*
X01476Y01578D01*
Y01582D02*
X01472Y01578D01*
X01476Y0157D02*
Y01563D01*
Y01566*
X01453*
X01457Y0157*
Y01551D02*
X01453Y01547D01*
Y01539*
X01457Y01535*
X01472*
X01476Y01539*
Y01547*
X01472Y01551*
X01457*
X0091Y00601D02*
X0091Y00578D01*
X00895Y00578*
X00887Y00578D02*
X00879Y00578D01*
X00883Y00578*
X00883Y00601*
X00887Y00597*
X01274Y01421D02*
X01266D01*
X0127*
Y01398*
X01274*
X01266*
X01239Y01417D02*
X01243Y01421D01*
X0125*
X01254Y01417*
Y01402*
X0125Y01398*
X01243*
X01239Y01402*
X01231Y01417D02*
X01227Y01421D01*
X01219*
X01215Y01417*
Y01413*
X01219Y0141*
X01223*
X01219*
X01215Y01406*
Y01402*
X01219Y01398*
X01227*
X01231Y01402*
X01435Y00446D02*
X01427D01*
X01431*
Y00423*
X01435*
X01427*
X014Y00442D02*
X01404Y00446D01*
X01411*
X01415Y00442*
Y00427*
X01411Y00423*
X01404*
X014Y00427*
X01392Y00423D02*
X01384D01*
X01388*
Y00446*
X01392Y00442*
X02039Y01421D02*
Y01398D01*
X02027*
X02023Y01402*
Y01417*
X02027Y01421*
X02039*
X02D02*
X02016D01*
Y0141*
X02008Y01413*
X02004*
X02Y0141*
Y01402*
X02004Y01398*
X02012*
X02016Y01402*
X01375Y00367D02*
X01379Y00371D01*
X01387*
X01391Y00367*
Y00352*
X01387Y00348*
X01379*
X01375Y00352*
X01367Y00363D02*
X01359Y00348D01*
X01351Y00363*
X01328D02*
X0134D01*
X01343Y0036*
Y00352*
X0134Y00348*
X01328*
X01304Y00363D02*
X01316D01*
X0132Y0036*
Y00352*
X01316Y00348*
X01304*
X01296D02*
X01288D01*
X01292*
Y00371*
X01296Y00367*
X01213Y00719D02*
X0121Y00722D01*
Y00729*
X01213Y00732*
X01226*
X01229Y00729*
Y00722*
X01226Y00719*
X01229Y00713D02*
Y00703D01*
X01226Y007*
X01223Y00703*
Y00709*
X0122Y00713*
X01216Y00709*
Y007*
X01229Y00693D02*
Y00683D01*
X01226Y0068*
X01223Y00683*
Y0069*
X0122Y00693*
X01216Y0069*
Y0068*
X01229Y00673D02*
Y00667D01*
Y0067*
X0121*
X01213Y00673*
X01369Y00276D02*
X01373Y0028D01*
X01381*
X01385Y00276*
Y0026*
X01381Y00257*
X01373*
X01369Y0026*
X01357Y00257D02*
X01349D01*
X01345Y0026*
Y00268*
X01349Y00272*
X01357*
X01361Y00268*
Y0026*
X01357Y00257*
X01337Y00272D02*
Y0026D01*
X01333Y00257*
X01322*
Y00272*
X0131Y00276D02*
Y00272D01*
X01314*
X01306*
X0131*
Y0026*
X01306Y00257*
X01294D02*
X01286D01*
X0129*
Y0028*
X01294Y00276*
X01539Y00442D02*
X01543Y00446D01*
X01551*
X01555Y00442*
Y00427*
X01551Y00423*
X01543*
X01539Y00427*
X01531Y00423D02*
X01523D01*
X01527*
Y00438*
X01531*
X01511Y00423D02*
Y00438D01*
X015*
X01496Y00435*
Y00423*
X01488Y00438D02*
X01472Y00423D01*
X0148Y00431*
X01472Y00438*
X01488Y00423*
X01464D02*
X01456D01*
X0146*
Y00446*
X01464Y00442*
X01632Y00597D02*
X01636Y00601D01*
X01644*
X01648Y00597*
Y00582*
X01644Y00578*
X01636*
X01632Y00582*
X01624Y00578D02*
X01616D01*
X0162*
Y00593*
X01624*
X01605Y00578D02*
Y00593D01*
X01593*
X01589Y0059*
Y00578*
X01581D02*
X01573D01*
X01577*
Y00601*
X01581Y00597*
X01391Y01457D02*
X01395Y01461D01*
X01403*
X01407Y01457*
Y01442*
X01403Y01438*
X01395*
X01391Y01442*
X01384Y01438D02*
X01376D01*
X0138*
Y01453*
X01384*
X01348D02*
X0136D01*
X01364Y0145*
Y01442*
X0136Y01438*
X01348*
X01508Y00615D02*
X01512Y00611D01*
Y00603*
X01508Y00599*
X01493*
X01489Y00603*
Y00611*
X01493Y00615*
X01489Y00627D02*
X01508D01*
X015*
Y00623*
Y00631*
Y00627*
X01508*
X01512Y00631*
X01489Y00646D02*
X01508D01*
X015*
Y00642*
Y0065*
Y00646*
X01508*
X01512Y0065*
X01489Y00662D02*
Y0067D01*
Y00666*
X01512*
X01508Y00662*
X01246Y00587D02*
X0125Y00591D01*
X01257*
X01261Y00587*
Y00572*
X01257Y00568*
X0125*
X01246Y00572*
X01238Y00591D02*
Y00568D01*
X01226*
X01222Y00572*
Y00576*
Y0058*
X01226Y00583*
X01238*
X0121Y00568D02*
X01202D01*
X01198Y00572*
Y0058*
X01202Y00583*
X0121*
X01214Y0058*
Y00572*
X0121Y00568*
X01187D02*
X01179D01*
X01175Y00572*
Y0058*
X01179Y00583*
X01187*
X01191Y0058*
Y00572*
X01187Y00568*
X01163Y00587D02*
Y00583D01*
X01167*
X01159*
X01163*
Y00572*
X01159Y00568*
X01147D02*
X01139D01*
X01143*
Y00591*
X01147Y00587*
G54D76*
X02632Y01778D02*
D01*
X02632Y01778*
X02631Y01778*
X02631Y01778*
X02631Y01778*
X0263Y01778*
X0263Y01778*
X0263Y01778*
X0263Y01778*
X0263Y01778*
X02629Y01778*
X02629Y01777*
X02629Y01777*
X02629Y01777*
X02629Y01777*
X02628Y01776*
X02628Y01776*
X02628Y01776*
X02628Y01776*
X02628Y01775*
X02628Y01775*
X02628Y01775*
X02628Y01775*
Y01774*
X02628Y01774*
X02628Y01774*
X02628Y01774*
X02628Y01773*
X02628Y01773*
X02628Y01773*
X02628Y01773*
X02629Y01772*
X02629Y01772*
X02629Y01772*
X02629Y01772*
X02629Y01771*
X0263Y01771*
X0263Y01771*
X0263Y01771*
X0263Y01771*
X0263Y01771*
X02631Y01771*
X02631Y01771*
X02631Y01771*
X02632Y01771*
X02632Y01771*
D01*
X02632Y01771*
X02632Y01771*
X02633Y01771*
X02633Y01771*
X02633Y01771*
X02633Y01771*
X02634Y01771*
X02634Y01771*
X02634Y01771*
X02634Y01771*
X02635Y01772*
X02635Y01772*
X02635Y01772*
X02635Y01772*
X02635Y01773*
X02635Y01773*
X02635Y01773*
X02636Y01773*
X02636Y01774*
X02636Y01774*
X02636Y01774*
X02636Y01774*
Y01775*
X02636Y01775*
X02636Y01775*
X02636Y01775*
X02636Y01776*
X02635Y01776*
X02635Y01776*
X02635Y01776*
X02635Y01777*
X02635Y01777*
X02635Y01777*
X02635Y01777*
X02634Y01778*
X02634Y01778*
X02634Y01778*
X02634Y01778*
X02633Y01778*
X02633Y01778*
X02633Y01778*
X02633Y01778*
X02632Y01778*
X02632Y01778*
X02632Y01778*
X01972Y01766D02*
D01*
X01972Y01766*
X01972Y01766*
X01973Y01766*
X01973Y01766*
X01973Y01766*
X01973Y01766*
X01974Y01766*
X01974Y01766*
X01974Y01766*
X01974Y01766*
X01975Y01767*
X01975Y01767*
X01975Y01767*
X01975Y01767*
X01975Y01768*
X01975Y01768*
X01975Y01768*
X01976Y01768*
X01976Y01769*
X01976Y01769*
X01976Y01769*
X01976Y01769*
Y0177*
X01976Y0177*
X01976Y0177*
X01976Y0177*
X01976Y01771*
X01975Y01771*
X01975Y01771*
X01975Y01771*
X01975Y01772*
X01975Y01772*
X01975Y01772*
X01975Y01772*
X01974Y01773*
X01974Y01773*
X01974Y01773*
X01974Y01773*
X01973Y01773*
X01973Y01773*
X01973Y01773*
X01973Y01773*
X01972Y01773*
X01972Y01773*
X01972Y01773*
D01*
X01972Y01773*
X01971Y01773*
X01971Y01773*
X01971Y01773*
X0197Y01773*
X0197Y01773*
X0197Y01773*
X0197Y01773*
X0197Y01773*
X01969Y01773*
X01969Y01772*
X01969Y01772*
X01969Y01772*
X01969Y01772*
X01968Y01771*
X01968Y01771*
X01968Y01771*
X01968Y01771*
X01968Y0177*
X01968Y0177*
X01968Y0177*
X01968Y0177*
Y01769*
X01968Y01769*
X01968Y01769*
X01968Y01769*
X01968Y01768*
X01968Y01768*
X01968Y01768*
X01968Y01768*
X01969Y01767*
X01969Y01767*
X01969Y01767*
X01969Y01767*
X01969Y01766*
X0197Y01766*
X0197Y01766*
X0197Y01766*
X0197Y01766*
X0197Y01766*
X01971Y01766*
X01971Y01766*
X01971Y01766*
X01972Y01766*
X01972Y01766*
X01063Y00703D02*
D01*
X01063Y00703*
X01062Y00703*
X01062Y00703*
X01062Y00703*
X01062Y00703*
X01061Y00703*
X01061Y00703*
X01061Y00703*
X01061Y00703*
X0106Y00703*
X0106Y00702*
X0106Y00702*
X0106Y00702*
X0106Y00702*
X0106Y00701*
X01059Y00701*
X01059Y00701*
X01059Y00701*
X01059Y007*
X01059Y007*
X01059Y007*
X01059Y007*
Y00699*
X01059Y00699*
X01059Y00699*
X01059Y00699*
X01059Y00698*
X01059Y00698*
X01059Y00698*
X0106Y00698*
X0106Y00697*
X0106Y00697*
X0106Y00697*
X0106Y00697*
X0106Y00696*
X01061Y00696*
X01061Y00696*
X01061Y00696*
X01061Y00696*
X01062Y00696*
X01062Y00696*
X01062Y00696*
X01062Y00696*
X01063Y00696*
X01063Y00696*
D01*
X01063Y00696*
X01064Y00696*
X01064Y00696*
X01064Y00696*
X01064Y00696*
X01065Y00696*
X01065Y00696*
X01065Y00696*
X01065Y00696*
X01066Y00696*
X01066Y00697*
X01066Y00697*
X01066Y00697*
X01066Y00697*
X01066Y00698*
X01067Y00698*
X01067Y00698*
X01067Y00698*
X01067Y00699*
X01067Y00699*
X01067Y00699*
X01067Y00699*
Y007*
X01067Y007*
X01067Y007*
X01067Y007*
X01067Y00701*
X01067Y00701*
X01067Y00701*
X01066Y00701*
X01066Y00702*
X01066Y00702*
X01066Y00702*
X01066Y00702*
X01066Y00703*
X01065Y00703*
X01065Y00703*
X01065Y00703*
X01065Y00703*
X01064Y00703*
X01064Y00703*
X01064Y00703*
X01064Y00703*
X01063Y00703*
X01063Y00703*
X01372Y00773D02*
D01*
X01372Y00773*
X01372Y00773*
X01371Y00773*
X01371Y00773*
X01371Y00773*
X0137Y00773*
X0137Y00773*
X0137Y00773*
X0137Y00773*
X0137Y00773*
X01369Y00772*
X01369Y00772*
X01369Y00772*
X01369Y00772*
X01369Y00771*
X01369Y00771*
X01368Y00771*
X01368Y00771*
X01368Y0077*
X01368Y0077*
X01368Y0077*
X01368Y0077*
Y00769*
X01368Y00769*
X01368Y00769*
X01368Y00769*
X01368Y00768*
X01368Y00768*
X01369Y00768*
X01369Y00768*
X01369Y00767*
X01369Y00767*
X01369Y00767*
X01369Y00767*
X0137Y00766*
X0137Y00766*
X0137Y00766*
X0137Y00766*
X0137Y00766*
X01371Y00766*
X01371Y00766*
X01371Y00766*
X01372Y00766*
X01372Y00766*
X01372Y00766*
D01*
X01372Y00766*
X01373Y00766*
X01373Y00766*
X01373Y00766*
X01373Y00766*
X01374Y00766*
X01374Y00766*
X01374Y00766*
X01374Y00766*
X01375Y00766*
X01375Y00767*
X01375Y00767*
X01375Y00767*
X01375Y00767*
X01376Y00768*
X01376Y00768*
X01376Y00768*
X01376Y00768*
X01376Y00769*
X01376Y00769*
X01376Y00769*
X01376Y00769*
Y0077*
X01376Y0077*
X01376Y0077*
X01376Y0077*
X01376Y00771*
X01376Y00771*
X01376Y00771*
X01376Y00771*
X01375Y00772*
X01375Y00772*
X01375Y00772*
X01375Y00772*
X01375Y00773*
X01374Y00773*
X01374Y00773*
X01374Y00773*
X01374Y00773*
X01373Y00773*
X01373Y00773*
X01373Y00773*
X01373Y00773*
X01372Y00773*
X01372Y00773*
X01568Y00683D02*
D01*
X01568Y00683*
X01567Y00683*
X01567Y00683*
X01567Y00683*
X01566Y00683*
X01566Y00683*
X01566Y00683*
X01566Y00683*
X01565Y00683*
X01565Y00683*
X01565Y00682*
X01565Y00682*
X01565Y00682*
X01565Y00682*
X01564Y00681*
X01564Y00681*
X01564Y00681*
X01564Y00681*
X01564Y0068*
X01564Y0068*
X01564Y0068*
X01564Y0068*
Y00679*
X01564Y00679*
X01564Y00679*
X01564Y00679*
X01564Y00678*
X01564Y00678*
X01564Y00678*
X01564Y00678*
X01565Y00677*
X01565Y00677*
X01565Y00677*
X01565Y00677*
X01565Y00676*
X01565Y00676*
X01566Y00676*
X01566Y00676*
X01566Y00676*
X01566Y00676*
X01567Y00676*
X01567Y00676*
X01567Y00676*
X01568Y00676*
X01568Y00676*
D01*
X01568Y00676*
X01568Y00676*
X01569Y00676*
X01569Y00676*
X01569Y00676*
X01569Y00676*
X0157Y00676*
X0157Y00676*
X0157Y00676*
X0157Y00676*
X01571Y00677*
X01571Y00677*
X01571Y00677*
X01571Y00677*
X01571Y00678*
X01571Y00678*
X01571Y00678*
X01572Y00678*
X01572Y00679*
X01572Y00679*
X01572Y00679*
X01572Y00679*
Y0068*
X01572Y0068*
X01572Y0068*
X01572Y0068*
X01572Y00681*
X01571Y00681*
X01571Y00681*
X01571Y00681*
X01571Y00682*
X01571Y00682*
X01571Y00682*
X01571Y00682*
X0157Y00683*
X0157Y00683*
X0157Y00683*
X0157Y00683*
X01569Y00683*
X01569Y00683*
X01569Y00683*
X01569Y00683*
X01568Y00683*
X01568Y00683*
X01568*
X02365Y01482D02*
Y01507D01*
X02602Y01499D02*
X02643D01*
X02588Y01382D02*
Y01497D01*
X02571Y01382D02*
X02588D01*
X02571D02*
Y01497D01*
X02588*
X01795Y01472D02*
Y01497D01*
X01052Y0129D02*
X01169D01*
X0269Y01577D02*
Y01602D01*
X0203Y01587D02*
Y01612D01*
X01339Y01222D02*
Y01269D01*
X01223Y01283D02*
X01337D01*
X01223D02*
Y01306D01*
X01337*
Y01283D02*
Y01306D01*
X02021Y01557D02*
X02038D01*
X02021Y01442D02*
Y01557D01*
Y01442D02*
X02038D01*
Y01557*
X02052Y01559D02*
X02093D01*
X0085Y0011D02*
Y00535D01*
X0125Y0011D02*
Y00535D01*
X01583Y0048D02*
X01638D01*
X01335Y00388D02*
Y00411D01*
X0129Y00158D02*
X01381D01*
X01494Y00511D02*
X01517D01*
G54D77*
X01473Y00725D02*
D01*
X01473Y00725*
X01473Y00725*
X01473Y00725*
X01473Y00725*
X01472Y00725*
X01472Y00725*
X01472Y00725*
X01472Y00725*
X01472Y00725*
X01472Y00725*
X01472Y00725*
X01472Y00725*
X01472Y00725*
X01472Y00725*
X01472Y00725*
X01472Y00725*
X01472Y00725*
X01472Y00725*
X01472Y00725*
X01472Y00725*
X01472Y00725*
X01472Y00725*
Y00724*
X01472Y00724*
X01472Y00724*
X01472Y00724*
X01472Y00724*
X01472Y00724*
X01472Y00724*
X01472Y00724*
X01472Y00724*
X01472Y00724*
X01472Y00724*
X01472Y00724*
X01472Y00724*
X01472Y00724*
X01472Y00724*
X01472Y00724*
X01472Y00724*
X01472Y00724*
X01473Y00724*
X01473Y00724*
X01473Y00724*
X01473Y00724*
X01473Y00724*
D01*
X01473Y00724*
X01473Y00724*
X01473Y00724*
X01473Y00724*
X01473Y00724*
X01473Y00724*
X01473Y00724*
X01473Y00724*
X01473Y00724*
X01473Y00724*
X01473Y00724*
X01474Y00724*
X01474Y00724*
X01474Y00724*
X01474Y00724*
X01474Y00724*
X01474Y00724*
X01474Y00724*
X01474Y00724*
X01474Y00724*
X01474Y00724*
X01474Y00724*
Y00725*
X01474Y00725*
X01474Y00725*
X01474Y00725*
X01474Y00725*
X01474Y00725*
X01474Y00725*
X01474Y00725*
X01474Y00725*
X01474Y00725*
X01474Y00725*
X01473Y00725*
X01473Y00725*
X01473Y00725*
X01473Y00725*
X01473Y00725*
X01473Y00725*
X01473Y00725*
X01473Y00725*
X01473Y00725*
X01473Y00725*
X01473Y00725*
X01473Y00725*
X01317Y00665D02*
D01*
X01317Y00665*
X01317Y00665*
X01317Y00665*
X01317Y00665*
X01317Y00665*
X01317Y00665*
X01316Y00665*
X01316Y00665*
X01316Y00665*
X01316Y00665*
X01316Y00665*
X01316Y00665*
X01316Y00665*
X01316Y00665*
X01316Y00665*
X01316Y00665*
X01316Y00665*
X01316Y00665*
X01316Y00665*
X01316Y00665*
X01316Y00665*
X01316Y00665*
Y00664*
X01316Y00664*
X01316Y00664*
X01316Y00664*
X01316Y00664*
X01316Y00664*
X01316Y00664*
X01316Y00664*
X01316Y00664*
X01316Y00664*
X01316Y00664*
X01316Y00664*
X01316Y00664*
X01316Y00664*
X01316Y00664*
X01316Y00664*
X01317Y00664*
X01317Y00664*
X01317Y00664*
X01317Y00664*
X01317Y00664*
X01317Y00664*
X01317Y00664*
D01*
X01317Y00664*
X01317Y00664*
X01317Y00664*
X01317Y00664*
X01317Y00664*
X01317Y00664*
X01317Y00664*
X01317Y00664*
X01317Y00664*
X01318Y00664*
X01318Y00664*
X01318Y00664*
X01318Y00664*
X01318Y00664*
X01318Y00664*
X01318Y00664*
X01318Y00664*
X01318Y00664*
X01318Y00664*
X01318Y00664*
X01318Y00664*
X01318Y00664*
Y00665*
X01318Y00665*
X01318Y00665*
X01318Y00665*
X01318Y00665*
X01318Y00665*
X01318Y00665*
X01318Y00665*
X01318Y00665*
X01318Y00665*
X01318Y00665*
X01318Y00665*
X01318Y00665*
X01317Y00665*
X01317Y00665*
X01317Y00665*
X01317Y00665*
X01317Y00665*
X01317Y00665*
X01317Y00665*
X01317Y00665*
X01317Y00665*
X01317Y00665*
G54D78*
X01611Y01041D02*
Y01281D01*
X01868*
Y01041D02*
Y01281D01*
X02021Y00976D02*
X02261D01*
Y01233*
X02021D02*
X02261D01*
X02221Y01818D02*
X02461D01*
Y01561D02*
Y01818D01*
X02221Y01561D02*
X02461D01*
X01561Y01808D02*
X01801D01*
Y01551D02*
Y01808D01*
X01561Y01551D02*
X01801D01*
X01275Y00618D02*
X01465D01*
X01275Y00458D02*
X01465D01*
X01275D02*
Y00618D01*
X01465Y00458D02*
Y00618D01*
X00945Y00727D02*
X00984D01*
X00945Y00672D02*
X00984D01*
X01254Y00797D02*
X01293D01*
X01254Y00742D02*
X01293D01*
X01647Y00707D02*
X01686D01*
X01647Y00652D02*
X01686D01*
G54D79*
X01395Y00613D02*
X01345D01*
Y00588*
X01353Y00579*
X0137*
X01378Y00588*
Y00613*
Y00596D02*
X01395Y00579D01*
Y00538D02*
Y00554D01*
X01386Y00563*
X0137*
X01361Y00554*
Y00538*
X0137Y00529*
X01378*
Y00563*
X01395Y00504D02*
X01353D01*
X0137*
Y00513*
Y00496*
Y00504*
X01353*
X01345Y00496*
Y00471D02*
X01395D01*
Y00446*
X01386Y00438*
X01353*
X01345Y00446*
Y00471*
X01395Y00396D02*
Y00413D01*
X01386Y00421*
X0137*
X01361Y00413*
Y00396*
X0137Y00388*
X01378*
Y00421*
X01395Y00371D02*
Y00346D01*
X01386Y00338*
X01378Y00346*
Y00363*
X0137Y00371*
X01361Y00363*
Y00338*
X01206Y00597D02*
X01256D01*
Y00572*
X01247Y00563*
X01214*
X01206Y00572*
Y00597*
X01256Y00522D02*
Y00538D01*
X01247Y00547*
X01231*
X01222Y00538*
Y00522*
X01231Y00513*
X01239*
Y00547*
X01256Y00497D02*
Y00472D01*
X01247Y00463*
X01239Y00472*
Y00488*
X01231Y00497*
X01222Y00488*
Y00463*
X01256Y00447D02*
Y0043D01*
Y00438*
X01222*
Y00447*
X01272Y00388D02*
Y0038D01*
X01264Y00372*
X01222*
Y00397*
X01231Y00405*
X01247*
X01256Y00397*
Y00372*
Y00355D02*
X01222D01*
Y0033*
X01231Y00322*
X01256*
X01222Y00297D02*
Y0028D01*
X01231Y00272*
X01256*
Y00297*
X01247Y00305*
X01239Y00297*
Y00272*
X01214Y00247D02*
X01222D01*
Y00255*
Y00238*
Y00247*
X01247*
X01256Y00238*
Y00205D02*
Y00188D01*
X01247Y0018*
X01231*
X01222Y00188*
Y00205*
X01231Y00213*
X01247*
X01256Y00205*
X01222Y00163D02*
X01256D01*
X01239*
X01231Y00155*
X01222Y00147*
Y00139*
X01247Y00114D02*
X01256Y00105D01*
Y00089*
X01247Y0008*
X01214*
X01206Y00089*
Y00105*
X01214Y00114*
X01222*
X01231Y00105*
Y0008*
X01256Y00039D02*
X01206D01*
X01231Y00064*
Y0003*
X01206Y-00019D02*
X01214Y-00002D01*
X01231Y00014*
X01247*
X01256Y00005*
Y-0001*
X01247Y-00019*
X01239*
X01231Y-0001*
Y00014*
M02*