%FSTAX23Y23*%
%MOIN*%
%SFA1B1*%

%IPPOS*%
%ADD10R,0.035430X0.039370*%
%ADD11R,0.041340X0.023620*%
%ADD12R,0.039370X0.035430*%
%ADD13R,0.023620X0.023620*%
%ADD14R,0.023620X0.041340*%
%ADD16R,0.023620X0.024410*%
%ADD17R,0.112210X0.194880*%
%ADD18R,0.019680X0.018700*%
%ADD19R,0.055120X0.045280*%
%ADD20R,0.047240X0.062990*%
%ADD23R,0.057090X0.031500*%
%ADD24R,0.057090X0.023620*%
%ADD25R,0.116140X0.079530*%
%ADD26R,0.039370X0.021650*%
%ADD27R,0.107090X0.048030*%
%ADD28R,0.018110X0.016540*%
%ADD29R,0.017720X0.008860*%
%ADD30R,0.041340X0.015750*%
%ADD31R,0.021650X0.009840*%
%ADD32R,0.009840X0.022640*%
%ADD33R,0.009840X0.021650*%
%ADD34R,0.015750X0.049210*%
%ADD35R,0.039370X0.015750*%
%ADD36R,0.024410X0.023620*%
%ADD37R,0.037010X0.021260*%
%ADD38R,0.024410X0.057870*%
%LNpwr_board_final_paste_top-1*%
%LPD*%
G54D10*
X01829Y0135D03*
X01892D03*
X02008Y00195D03*
X02071D03*
X00858Y01385D03*
X00921D03*
X01754Y0058D03*
X01817D03*
X01749Y00885D03*
X01812D03*
X01884Y0071D03*
X01947D03*
X02113Y01425D03*
X02176D03*
X00871Y01825D03*
X00808D03*
X00871Y0174D03*
X00808D03*
X02059Y008D03*
X02122D03*
X00787Y0147D03*
X00724D03*
G54D11*
X02049Y01342D03*
Y01417D03*
X01962Y0138D03*
X02267Y01022D03*
Y00947D03*
X02354Y00985D03*
X02029Y00942D03*
X02115Y00979D03*
Y00905D03*
X02269Y01107D03*
Y01182D03*
X02182Y01145D03*
X02134Y0068D03*
X02047Y00642D03*
Y00717D03*
X02094Y00365D03*
X02007Y00327D03*
Y00402D03*
X02127Y01315D03*
X02214Y01352D03*
Y01277D03*
G54D12*
X02585Y01321D03*
Y01258D03*
X0268Y01321D03*
Y01258D03*
X0222Y00678D03*
Y00741D03*
X0229Y00621D03*
Y00558D03*
X0236Y01172D03*
Y0111D03*
G54D13*
X01789Y00775D03*
X01702D03*
G54D14*
X02258Y00443D03*
X02183D03*
X0222Y00356D03*
X01653Y00388D03*
X01578D03*
X01615Y00301D03*
G54D16*
X00859Y01085D03*
X00757Y01385D03*
X00794D03*
X00822Y01085D03*
G54D17*
X01087Y01136D03*
X01513D03*
G54D18*
X02045Y00555D03*
Y00514D03*
X0174Y0136D03*
Y01319D03*
G54D19*
X01825Y00248D03*
Y00341D03*
G54D20*
X02362Y0133D03*
X02477D03*
X00872Y01485D03*
X00987D03*
G54D23*
X019Y01221D03*
Y01138D03*
X0202D03*
Y01221D03*
G54D24*
X019Y0118D03*
X0202D03*
G54D25*
X0263Y01736D03*
Y01933D03*
X02Y01736D03*
Y01933D03*
G54D26*
X02288Y0087D03*
X02213Y00844D03*
Y00895D03*
G54D27*
X00675Y01288D03*
Y01181D03*
G54D28*
X00748Y0157D03*
X00722D03*
G54D29*
X00889Y01166D03*
Y01263D03*
G54D30*
X00804Y01189D03*
Y0124D03*
G54D31*
X00887Y01244D03*
Y01224D03*
Y01205D03*
Y01185D03*
G54D32*
X00875Y01159D03*
Y0127D03*
G54D33*
X00855Y01158D03*
Y01271D03*
G54D34*
X00833Y01172D03*
Y01257D03*
G54D35*
X00831Y01215D03*
G54D36*
X0096Y01163D03*
Y01126D03*
G54D37*
X00965Y01341D03*
Y01278D03*
G54D38*
X0086Y0098D03*
X00781D03*
M02*